# MagicaVoxel @ Ephtracy

# material
mtllib hot_dog_cart.mtl
usemtl palette

# normals
vn -1 0 0
vn 1 0 0
vn 0 0 1
vn 0 0 -1
vn 0 -1 0
vn 0 1 0

# texcoords
vt 0.0253906 0.5
vt 0.0332031 0.5
vt 0.845703 0.5
vt 0.876953 0.5
vt 0.939453 0.5
vt 0.955078 0.5
vt 0.974609 0.5
vt 0.978516 0.5
vt 0.986328 0.5
vt 0.994141 0.5

# verts
v -16 6 -4
v -16 6 -12
v -16 8 -4
v -16 8 -12
v -12 4 -4
v -12 4 -12
v -12 6 -4
v -12 6 -12
v -12 8 -8
v -12 8 -10
v -12 14 -2
v -12 14 -4
v -12 14 -6
v -12 14 -8
v -12 16 -2
v -12 16 -4
v -12 16 -6
v -12 16 -8
v -12 16 -10
v -12 16 -12
v -12 18 -8
v -12 18 -10
v -12 18 -12
v -12 18 -14
v -12 20 -12
v -12 20 -14
v -10 8 -10
v -10 8 -12
v -10 14 -10
v -10 14 -12
v -8 0 -4
v -8 0 -6
v -8 0 -10
v -8 0 -12
v -8 4 -4
v -8 4 -6
v -8 4 -10
v -8 4 -12
v -2 8 -10
v -2 8 -12
v -2 14 -10
v -2 14 -12
v 0 8 -6
v 0 8 -10
v 0 14 -6
v 0 14 -8
v 0 14 -9
v 0 14 -10
v 0 16 -6
v 0 16 -8
v 0 18 -8
v 0 24 -6
v 0 24 -8
v 3 9 -5
v 3 9 -10
v 3 10 -5
v 3 10 -10
v 4 8 -5
v 4 8 -10
v 4 9 -5
v 4 9 -10
v 6 0 -6
v 6 0 -10
v 6 2 -4
v 6 2 -6
v 6 2 -10
v 6 2 -12
v 6 4 -6
v 6 4 -10
v 6 6 -4
v 6 6 -12
v -10 8 -8
v -10 8 -10
v -10 14 -8
v -10 14 -9
v -10 14 -10
v -8 8 -10
v -8 8 -12
v -8 14 -10
v -8 14 -12
v -2 0 -4
v -2 0 -6
v -2 0 -10
v -2 0 -12
v -2 4 -4
v -2 4 -6
v -2 4 -10
v -2 4 -12
v 0 8 -10
v 0 8 -12
v 0 14 -2
v 0 14 -4
v 0 14 -6
v 0 14 -10
v 0 14 -12
v 0 16 -2
v 0 16 -4
v 0 16 -6
v 0 16 -8
v 0 16 -10
v 0 16 -12
v 0 18 -8
v 0 18 -10
v 0 18 -12
v 0 18 -14
v 0 20 -12
v 0 20 -14
v 2 4 -4
v 2 4 -12
v 2 6 -4
v 2 6 -12
v 2 8 -6
v 2 8 -10
v 2 16 -8
v 2 16 -10
v 2 18 -6
v 2 18 -8
v 4 22 -6
v 4 22 -8
v 4 24 -6
v 4 24 -8
v 5 8 -5
v 5 8 -10
v 5 9 -5
v 5 9 -10
v 6 9 -5
v 6 9 -10
v 6 10 -5
v 6 10 -10
v 6 20 -6
v 6 20 -8
v 6 22 -6
v 6 22 -8
v 8 2 -4
v 8 2 -6
v 8 2 -10
v 8 2 -12
v 8 4 -6
v 8 4 -10
v 8 6 -4
v 8 6 -12
v 8 18 -6
v 8 18 -8
v 8 20 -6
v 8 20 -8
v 10 0 -6
v 10 0 -10
v 10 2 -6
v 10 2 -10
v 10 6 -4
v 10 6 -12
v 10 8 -4
v 10 8 -12
v -12 14 -2
v -12 16 -2
v 0 14 -2
v 0 16 -2
v -16 6 -4
v -16 8 -4
v -12 4 -4
v -12 6 -4
v -10 4 -4
v -10 8 -4
v -8 0 -4
v -8 4 -4
v -8 6 -4
v -6 2 -4
v -6 4 -4
v -4 2 -4
v -4 4 -4
v -2 0 -4
v -2 4 -4
v -2 6 -4
v 0 4 -4
v 0 8 -4
v 2 4 -4
v 2 6 -4
v 6 2 -4
v 6 6 -4
v 8 2 -4
v 8 6 -4
v 8 8 -4
v 10 6 -4
v 10 8 -4
v 3 9 -5
v 3 10 -5
v 4 8 -5
v 4 9 -5
v 4 10 -5
v 5 8 -5
v 5 9 -5
v 5 10 -5
v 6 9 -5
v 6 10 -5
v 0 8 -6
v 0 14 -6
v 0 16 -6
v 0 24 -6
v 2 8 -6
v 2 18 -6
v 2 24 -6
v 4 22 -6
v 4 24 -6
v 6 0 -6
v 6 2 -6
v 6 20 -6
v 6 22 -6
v 8 2 -6
v 8 18 -6
v 8 20 -6
v 10 0 -6
v 10 2 -6
v -12 8 -8
v -12 14 -8
v -12 16 -8
v -12 18 -8
v -10 8 -8
v -10 14 -8
v 0 16 -8
v 0 18 -8
v -10 8 -10
v -10 14 -10
v -8 0 -10
v -8 4 -10
v -8 8 -10
v -8 14 -10
v -6 2 -10
v -6 4 -10
v -4 2 -10
v -4 4 -10
v -2 0 -10
v -2 4 -10
v -2 8 -10
v -2 14 -10
v 0 8 -10
v 0 14 -10
v -12 18 -12
v -12 20 -12
v 0 18 -12
v 0 20 -12
v -8 0 -6
v -8 4 -6
v -6 2 -6
v -6 4 -6
v -4 2 -6
v -4 4 -6
v -2 0 -6
v -2 4 -6
v 0 16 -8
v 0 18 -8
v 0 24 -8
v 2 16 -8
v 2 18 -8
v 2 24 -8
v 4 22 -8
v 4 24 -8
v 6 20 -8
v 6 22 -8
v 8 18 -8
v 8 20 -8
v -12 8 -10
v -12 16 -10
v -10 8 -10
v -10 14 -10
v -8 14 -10
v -2 14 -10
v 0 8 -10
v 0 14 -10
v 0 16 -10
v 2 8 -10
v 2 16 -10
v 3 9 -10
v 3 10 -10
v 4 8 -10
v 4 9 -10
v 4 10 -10
v 5 8 -10
v 5 9 -10
v 5 10 -10
v 6 0 -10
v 6 2 -10
v 6 9 -10
v 6 10 -10
v 8 2 -10
v 10 0 -10
v 10 2 -10
v -16 6 -12
v -16 8 -12
v -12 4 -12
v -12 6 -12
v -12 16 -12
v -12 18 -12
v -10 4 -12
v -10 8 -12
v -10 14 -12
v -8 0 -12
v -8 4 -12
v -8 6 -12
v -8 8 -12
v -8 14 -12
v -6 2 -12
v -6 4 -12
v -4 2 -12
v -4 4 -12
v -2 0 -12
v -2 4 -12
v -2 6 -12
v -2 8 -12
v -2 14 -12
v 0 4 -12
v 0 8 -12
v 0 14 -12
v 0 16 -12
v 0 18 -12
v 2 4 -12
v 2 6 -12
v 6 2 -12
v 6 6 -12
v 8 2 -12
v 8 6 -12
v 8 8 -12
v 10 6 -12
v 10 8 -12
v -12 18 -14
v -12 20 -14
v 0 18 -14
v 0 20 -14
v -8 0 -4
v -2 0 -4
v -8 0 -6
v -2 0 -6
v 6 0 -6
v 10 0 -6
v -8 0 -10
v -2 0 -10
v 6 0 -10
v 10 0 -10
v -8 0 -12
v -2 0 -12
v 6 2 -4
v 8 2 -4
v 6 2 -6
v 8 2 -6
v 6 2 -10
v 8 2 -10
v 6 2 -12
v 8 2 -12
v -12 4 -4
v -10 4 -4
v -8 4 -4
v -2 4 -4
v 0 4 -4
v 2 4 -4
v -10 4 -6
v -8 4 -6
v -6 4 -6
v -4 4 -6
v -2 4 -6
v 0 4 -6
v -10 4 -10
v -8 4 -10
v -6 4 -10
v -4 4 -10
v -2 4 -10
v 0 4 -10
v -12 4 -12
v -10 4 -12
v -8 4 -12
v -2 4 -12
v 0 4 -12
v 2 4 -12
v -16 6 -4
v -12 6 -4
v 2 6 -4
v 6 6 -4
v 8 6 -4
v 10 6 -4
v -16 6 -12
v -12 6 -12
v 2 6 -12
v 6 6 -12
v 8 6 -12
v 10 6 -12
v 3 9 -5
v 4 9 -5
v 5 9 -5
v 6 9 -5
v 3 9 -10
v 4 9 -10
v 5 9 -10
v 6 9 -10
v -12 14 -2
v 0 14 -2
v -12 14 -4
v 0 14 -4
v -12 14 -6
v 0 14 -6
v -12 14 -8
v -10 14 -8
v 0 14 -8
v -10 14 -9
v 0 14 -9
v -10 14 -10
v -8 14 -10
v -2 14 -10
v 0 14 -10
v -12 16 -10
v 0 16 -10
v -12 16 -12
v 0 16 -12
v 2 18 -6
v 8 18 -6
v 2 18 -8
v 8 18 -8
v -12 18 -12
v 0 18 -12
v -12 18 -14
v 0 18 -14
v 8 2 -6
v 10 2 -6
v 8 2 -10
v 10 2 -10
v -16 8 -4
v -10 8 -4
v 0 8 -4
v 8 8 -4
v 10 8 -4
v 4 8 -5
v 5 8 -5
v -10 8 -6
v -2 8 -6
v 0 8 -6
v 2 8 -6
v -12 8 -8
v -10 8 -8
v -12 8 -10
v -10 8 -10
v -8 8 -10
v -2 8 -10
v 0 8 -10
v 2 8 -10
v 4 8 -10
v 5 8 -10
v -16 8 -12
v -10 8 -12
v -8 8 -12
v -2 8 -12
v 0 8 -12
v 8 8 -12
v 10 8 -12
v 3 10 -5
v 4 10 -5
v 5 10 -5
v 6 10 -5
v 3 10 -10
v 4 10 -10
v 5 10 -10
v 6 10 -10
v -10 14 -10
v -8 14 -10
v -2 14 -10
v 0 14 -10
v -10 14 -12
v -8 14 -12
v -2 14 -12
v 0 14 -12
v -12 16 -2
v 0 16 -2
v -12 16 -4
v 0 16 -4
v -12 16 -6
v 0 16 -6
v -12 16 -8
v 0 16 -8
v 2 16 -8
v 0 16 -10
v 2 16 -10
v -12 18 -8
v 0 18 -8
v -12 18 -10
v 0 18 -10
v -12 18 -12
v 0 18 -12
v 6 20 -6
v 8 20 -6
v 6 20 -8
v 8 20 -8
v -12 20 -12
v 0 20 -12
v -12 20 -14
v 0 20 -14
v 4 22 -6
v 6 22 -6
v 4 22 -8
v 6 22 -8
v 0 24 -6
v 2 24 -6
v 4 24 -6
v 0 24 -8
v 2 24 -8
v 4 24 -8

# faces
f 3/2/1 2/2/1 1/2/1
f 4/2/1 2/2/1 3/2/1
f 7/2/1 6/2/1 5/2/1
f 8/2/1 6/2/1 7/2/1
f 14/2/1 10/2/1 9/2/1
f 15/5/1 12/5/1 11/5/1
f 16/4/1 13/4/1 12/4/1
f 16/5/1 12/5/1 15/5/1
f 17/5/1 14/5/1 13/5/1
f 17/4/1 13/4/1 16/4/1
f 18/2/1 10/2/1 14/2/1
f 18/5/1 14/5/1 17/5/1
f 19/2/1 10/2/1 18/2/1
f 21/4/1 19/4/1 18/4/1
f 22/5/1 20/5/1 19/5/1
f 22/4/1 19/4/1 21/4/1
f 23/5/1 20/5/1 22/5/1
f 25/4/1 24/4/1 23/4/1
f 26/4/1 24/4/1 25/4/1
f 29/2/1 28/2/1 27/2/1
f 30/2/1 28/2/1 29/2/1
f 35/10/1 32/10/1 31/10/1
f 36/10/1 32/10/1 35/10/1
f 37/10/1 34/10/1 33/10/1
f 38/10/1 34/10/1 37/10/1
f 41/2/1 40/2/1 39/2/1
f 42/2/1 40/2/1 41/2/1
f 45/2/1 44/2/1 43/2/1
f 46/2/1 44/2/1 45/2/1
f 47/2/1 44/2/1 46/2/1
f 48/2/1 44/2/1 47/2/1
f 51/2/1 50/2/1 49/2/1
f 52/2/1 51/2/1 49/2/1
f 53/2/1 51/2/1 52/2/1
f 56/4/1 55/4/1 54/4/1
f 57/4/1 55/4/1 56/4/1
f 60/4/1 59/4/1 58/4/1
f 61/4/1 59/4/1 60/4/1
f 65/2/1 63/2/1 62/2/1
f 66/2/1 63/2/1 65/2/1
f 68/1/1 65/1/1 64/1/1
f 68/2/1 66/2/1 65/2/1
f 69/1/1 67/1/1 66/1/1
f 69/2/1 66/2/1 68/2/1
f 70/1/1 68/1/1 64/1/1
f 70/1/1 69/1/1 68/1/1
f 71/1/1 67/1/1 69/1/1
f 71/1/1 69/1/1 70/1/1
f 72/2/2 73/2/2 74/2/2
f 74/2/2 73/2/2 75/2/2
f 75/2/2 73/2/2 76/2/2
f 77/2/2 78/2/2 79/2/2
f 79/2/2 78/2/2 80/2/2
f 81/10/2 82/10/2 85/10/2
f 85/10/2 82/10/2 86/10/2
f 83/10/2 84/10/2 87/10/2
f 87/10/2 84/10/2 88/10/2
f 89/2/2 90/2/2 94/2/2
f 94/2/2 90/2/2 95/2/2
f 91/5/2 92/5/2 96/5/2
f 92/4/2 93/4/2 97/4/2
f 96/5/2 92/5/2 97/5/2
f 97/4/2 93/4/2 98/4/2
f 99/4/2 100/4/2 102/4/2
f 100/5/2 101/5/2 103/5/2
f 102/4/2 100/4/2 103/4/2
f 103/5/2 101/5/2 104/5/2
f 104/4/2 105/4/2 106/4/2
f 106/4/2 105/4/2 107/4/2
f 108/2/2 109/2/2 110/2/2
f 110/2/2 109/2/2 111/2/2
f 112/2/2 113/2/2 114/2/2
f 114/2/2 113/2/2 115/2/2
f 112/2/2 114/2/2 116/2/2
f 116/2/2 114/2/2 117/2/2
f 118/5/2 119/5/2 120/5/2
f 120/5/2 119/5/2 121/5/2
f 122/4/2 123/4/2 124/4/2
f 124/4/2 123/4/2 125/4/2
f 126/4/2 127/4/2 128/4/2
f 128/4/2 127/4/2 129/4/2
f 130/5/2 131/5/2 132/5/2
f 132/5/2 131/5/2 133/5/2
f 134/1/2 135/1/2 138/1/2
f 135/2/2 136/2/2 138/2/2
f 136/1/2 137/1/2 139/1/2
f 138/2/2 136/2/2 139/2/2
f 134/1/2 138/1/2 140/1/2
f 138/1/2 139/1/2 140/1/2
f 139/1/2 137/1/2 141/1/2
f 140/1/2 139/1/2 141/1/2
f 142/5/2 143/5/2 144/5/2
f 144/5/2 143/5/2 145/5/2
f 146/2/2 147/2/2 148/2/2
f 148/2/2 147/2/2 149/2/2
f 150/1/2 151/1/2 152/1/2
f 152/1/2 151/1/2 153/1/2
f 156/5/3 155/5/3 154/5/3
f 157/5/3 155/5/3 156/5/3
f 161/2/3 159/2/3 158/2/3
f 162/2/3 161/2/3 160/2/3
f 163/2/3 159/2/3 161/2/3
f 163/2/3 161/2/3 162/2/3
f 165/1/3 163/1/3 162/1/3
f 166/1/3 163/1/3 165/1/3
f 167/10/3 165/10/3 164/10/3
f 167/10/3 166/10/3 165/10/3
f 168/10/3 166/10/3 167/10/3
f 169/10/3 167/10/3 164/10/3
f 169/1/3 168/1/3 167/1/3
f 170/10/3 166/10/3 168/10/3
f 170/1/3 168/1/3 169/1/3
f 171/10/3 169/10/3 164/10/3
f 171/10/3 170/10/3 169/10/3
f 172/10/3 166/10/3 170/10/3
f 172/10/3 170/10/3 171/10/3
f 173/1/3 163/1/3 166/1/3
f 173/10/3 166/10/3 172/10/3
f 174/1/3 173/1/3 172/1/3
f 175/1/3 163/1/3 173/1/3
f 175/1/3 173/1/3 174/1/3
f 176/2/3 175/2/3 174/2/3
f 177/2/3 175/2/3 176/2/3
f 179/2/3 175/2/3 177/2/3
f 180/1/3 179/1/3 178/1/3
f 181/2/3 175/2/3 179/2/3
f 181/1/3 179/1/3 180/1/3
f 182/2/3 175/2/3 181/2/3
f 183/1/3 182/1/3 181/1/3
f 184/1/3 182/1/3 183/1/3
f 188/4/3 186/4/3 185/4/3
f 189/4/3 186/4/3 188/4/3
f 190/4/3 188/4/3 187/4/3
f 191/6/3 189/6/3 188/6/3
f 191/4/3 188/4/3 190/4/3
f 192/6/3 189/6/3 191/6/3
f 193/4/3 192/4/3 191/4/3
f 194/4/3 192/4/3 193/4/3
f 199/2/3 196/2/3 195/2/3
f 199/2/3 198/2/3 197/2/3
f 199/2/3 197/2/3 196/2/3
f 200/2/3 198/2/3 199/2/3
f 201/2/3 198/2/3 200/2/3
f 202/5/3 201/5/3 200/5/3
f 203/5/3 201/5/3 202/5/3
f 206/5/3 202/5/3 200/5/3
f 207/5/3 202/5/3 206/5/3
f 208/2/3 205/2/3 204/2/3
f 209/5/3 206/5/3 200/5/3
f 210/5/3 206/5/3 209/5/3
f 211/2/3 208/2/3 204/2/3
f 212/2/3 208/2/3 211/2/3
f 217/2/3 214/2/3 213/2/3
f 218/2/3 214/2/3 217/2/3
f 219/4/3 216/4/3 215/4/3
f 220/4/3 216/4/3 219/4/3
f 225/2/3 222/2/3 221/2/3
f 226/2/3 222/2/3 225/2/3
f 227/10/3 224/10/3 223/10/3
f 228/10/3 224/10/3 227/10/3
f 229/10/3 227/10/3 223/10/3
f 229/7/3 228/7/3 227/7/3
f 230/7/3 228/7/3 229/7/3
f 231/10/3 229/10/3 223/10/3
f 231/10/3 230/10/3 229/10/3
f 232/10/3 230/10/3 231/10/3
f 235/2/3 234/2/3 233/2/3
f 236/2/3 234/2/3 235/2/3
f 239/4/3 238/4/3 237/4/3
f 240/4/3 238/4/3 239/4/3
f 241/10/4 242/10/4 243/10/4
f 243/10/4 242/10/4 244/10/4
f 241/10/4 243/10/4 245/10/4
f 243/1/4 244/1/4 245/1/4
f 245/1/4 244/1/4 246/1/4
f 241/10/4 245/10/4 247/10/4
f 245/10/4 246/10/4 247/10/4
f 247/10/4 246/10/4 248/10/4
f 249/2/4 250/2/4 252/2/4
f 250/2/4 251/2/4 252/2/4
f 252/2/4 251/2/4 253/2/4
f 253/2/4 251/2/4 254/2/4
f 253/5/4 254/5/4 255/5/4
f 255/5/4 254/5/4 256/5/4
f 253/5/4 255/5/4 257/5/4
f 257/5/4 255/5/4 258/5/4
f 253/5/4 257/5/4 259/5/4
f 259/5/4 257/5/4 260/5/4
f 261/2/4 262/2/4 263/2/4
f 263/2/4 262/2/4 264/2/4
f 264/2/4 262/2/4 265/2/4
f 265/2/4 262/2/4 266/2/4
f 266/2/4 262/2/4 268/2/4
f 268/2/4 262/2/4 269/2/4
f 267/2/4 268/2/4 270/2/4
f 268/2/4 269/2/4 270/2/4
f 270/2/4 269/2/4 271/2/4
f 272/4/4 273/4/4 275/4/4
f 275/4/4 273/4/4 276/4/4
f 274/4/4 275/4/4 277/4/4
f 275/6/4 276/6/4 278/6/4
f 277/4/4 275/4/4 278/4/4
f 278/6/4 276/6/4 279/6/4
f 278/4/4 279/4/4 282/4/4
f 282/4/4 279/4/4 283/4/4
f 280/2/4 281/2/4 284/2/4
f 280/2/4 284/2/4 285/2/4
f 285/2/4 284/2/4 286/2/4
f 287/2/4 288/2/4 290/2/4
f 289/2/4 290/2/4 293/2/4
f 290/2/4 288/2/4 294/2/4
f 293/2/4 290/2/4 294/2/4
f 293/1/4 294/1/4 297/1/4
f 297/1/4 294/1/4 298/1/4
f 294/2/4 295/2/4 299/2/4
f 298/1/4 294/1/4 299/1/4
f 299/2/4 295/2/4 300/2/4
f 297/10/4 298/10/4 301/10/4
f 296/10/4 297/10/4 301/10/4
f 301/10/4 298/10/4 302/10/4
f 296/10/4 301/10/4 303/10/4
f 301/1/4 302/1/4 303/1/4
f 302/10/4 298/10/4 304/10/4
f 303/1/4 302/1/4 304/1/4
f 296/10/4 303/10/4 305/10/4
f 303/10/4 304/10/4 305/10/4
f 304/10/4 298/10/4 306/10/4
f 305/10/4 304/10/4 306/10/4
f 298/1/4 299/1/4 307/1/4
f 306/10/4 298/10/4 307/10/4
f 307/1/4 299/1/4 308/1/4
f 306/1/4 307/1/4 310/1/4
f 307/1/4 308/1/4 310/1/4
f 308/2/4 309/2/4 311/2/4
f 310/1/4 308/1/4 311/1/4
f 311/2/4 309/2/4 312/2/4
f 291/5/4 292/5/4 313/5/4
f 313/5/4 292/5/4 314/5/4
f 310/2/4 311/2/4 315/2/4
f 315/2/4 311/2/4 316/2/4
f 316/2/4 311/2/4 318/2/4
f 317/1/4 318/1/4 319/1/4
f 318/2/4 311/2/4 320/2/4
f 319/1/4 318/1/4 320/1/4
f 320/2/4 311/2/4 321/2/4
f 320/1/4 321/1/4 322/1/4
f 322/1/4 321/1/4 323/1/4
f 324/4/4 325/4/4 326/4/4
f 326/4/4 325/4/4 327/4/4
f 330/10/5 329/10/5 328/10/5
f 331/10/5 329/10/5 330/10/5
f 336/2/5 333/2/5 332/2/5
f 337/2/5 333/2/5 336/2/5
f 338/10/5 335/10/5 334/10/5
f 339/10/5 335/10/5 338/10/5
f 342/1/5 341/1/5 340/1/5
f 343/1/5 341/1/5 342/1/5
f 346/1/5 345/1/5 344/1/5
f 347/1/5 345/1/5 346/1/5
f 354/2/5 349/2/5 348/2/5
f 354/1/5 350/1/5 349/1/5
f 355/1/5 350/1/5 354/1/5
f 358/1/5 352/1/5 351/1/5
f 359/2/5 353/2/5 352/2/5
f 359/1/5 352/1/5 358/1/5
f 360/2/5 358/2/5 357/2/5
f 360/2/5 357/2/5 356/2/5
f 360/2/5 359/2/5 358/2/5
f 360/2/5 354/2/5 348/2/5
f 360/2/5 356/2/5 355/2/5
f 360/2/5 355/2/5 354/2/5
f 361/2/5 359/2/5 360/2/5
f 362/2/5 359/2/5 361/2/5
f 363/2/5 359/2/5 362/2/5
f 364/2/5 359/2/5 363/2/5
f 365/2/5 353/2/5 359/2/5
f 365/2/5 359/2/5 364/2/5
f 366/2/5 360/2/5 348/2/5
f 367/1/5 361/1/5 360/1/5
f 367/2/5 360/2/5 366/2/5
f 368/1/5 361/1/5 367/1/5
f 369/1/5 365/1/5 364/1/5
f 370/2/5 353/2/5 365/2/5
f 370/1/5 365/1/5 369/1/5
f 371/2/5 353/2/5 370/2/5
f 378/2/5 373/2/5 372/2/5
f 379/2/5 373/2/5 378/2/5
f 380/2/5 375/2/5 374/2/5
f 381/2/5 375/2/5 380/2/5
f 382/1/5 377/1/5 376/1/5
f 383/1/5 377/1/5 382/1/5
f 388/4/5 385/4/5 384/4/5
f 389/4/5 385/4/5 388/4/5
f 390/4/5 387/4/5 386/4/5
f 391/4/5 387/4/5 390/4/5
f 394/5/5 393/5/5 392/5/5
f 395/5/5 393/5/5 394/5/5
f 396/4/5 395/4/5 394/4/5
f 397/4/5 395/4/5 396/4/5
f 398/5/5 397/5/5 396/5/5
f 399/5/5 397/5/5 398/5/5
f 400/5/5 397/5/5 399/5/5
f 401/7/5 400/7/5 399/7/5
f 402/7/5 400/7/5 401/7/5
f 403/2/5 402/2/5 401/2/5
f 404/2/5 402/2/5 403/2/5
f 405/2/5 402/2/5 404/2/5
f 406/2/5 402/2/5 405/2/5
f 409/5/5 408/5/5 407/5/5
f 410/5/5 408/5/5 409/5/5
f 413/5/5 412/5/5 411/5/5
f 414/5/5 412/5/5 413/5/5
f 417/4/5 416/4/5 415/4/5
f 418/4/5 416/4/5 417/4/5
f 419/2/6 420/2/6 421/2/6
f 421/2/6 420/2/6 422/2/6
f 425/2/6 426/2/6 428/2/6
f 428/2/6 426/2/6 429/2/6
f 423/2/6 424/2/6 430/2/6
f 424/1/6 425/1/6 430/1/6
f 430/1/6 425/1/6 431/1/6
f 425/2/6 428/2/6 432/2/6
f 431/1/6 425/1/6 432/1/6
f 432/2/6 428/2/6 433/2/6
f 430/2/6 431/2/6 434/2/6
f 423/2/6 430/2/6 434/2/6
f 434/2/6 431/2/6 435/2/6
f 423/2/6 434/2/6 436/2/6
f 435/2/6 431/2/6 437/2/6
f 437/2/6 431/2/6 438/2/6
f 431/1/6 432/1/6 439/1/6
f 438/2/6 431/2/6 439/2/6
f 439/1/6 432/1/6 440/1/6
f 433/2/6 428/2/6 441/2/6
f 441/2/6 428/2/6 442/2/6
f 429/2/6 426/2/6 443/2/6
f 423/2/6 436/2/6 444/2/6
f 436/2/6 437/2/6 444/2/6
f 444/2/6 437/2/6 445/2/6
f 438/1/6 439/1/6 446/1/6
f 446/1/6 439/1/6 447/1/6
f 441/2/6 442/2/6 448/2/6
f 442/2/6 443/2/6 448/2/6
f 440/2/6 441/2/6 448/2/6
f 426/1/6 427/1/6 449/1/6
f 448/2/6 443/2/6 449/2/6
f 443/2/6 426/2/6 449/2/6
f 449/1/6 427/1/6 450/1/6
f 451/4/6 452/4/6 455/4/6
f 452/6/6 453/6/6 456/6/6
f 455/4/6 452/4/6 456/4/6
f 453/4/6 454/4/6 457/4/6
f 456/6/6 453/6/6 457/6/6
f 457/4/6 454/4/6 458/4/6
f 459/2/6 460/2/6 463/2/6
f 463/2/6 460/2/6 464/2/6
f 461/2/6 462/2/6 465/2/6
f 465/2/6 462/2/6 466/2/6
f 467/5/6 468/5/6 469/5/6
f 469/5/6 468/5/6 470/5/6
f 469/4/6 470/4/6 471/4/6
f 471/4/6 470/4/6 472/4/6
f 471/5/6 472/5/6 473/5/6
f 473/5/6 472/5/6 474/5/6
f 474/2/6 475/2/6 476/2/6
f 476/2/6 475/2/6 477/2/6
f 478/4/6 479/4/6 480/4/6
f 480/4/6 479/4/6 481/4/6
f 480/5/6 481/5/6 482/5/6
f 482/5/6 481/5/6 483/5/6
f 484/5/6 485/5/6 486/5/6
f 486/5/6 485/5/6 487/5/6
f 488/4/6 489/4/6 490/4/6
f 490/4/6 489/4/6 491/4/6
f 492/5/6 493/5/6 494/5/6
f 494/5/6 493/5/6 495/5/6
f 496/2/6 497/2/6 499/2/6
f 497/5/6 498/5/6 500/5/6
f 499/2/6 497/2/6 500/2/6
f 500/5/6 498/5/6 501/5/6
