# MagicaVoxel @ Ephtracy

# group
g store_fill-4

# material
mtllib store_fill-4.mtl
usemtl palette

# normals
vn -1 0 0
vn 1 0 0
vn 0 0 1
vn 0 0 -1
vn 0 -1 0
vn 0 1 0

# texcoords
vt 0.0292969 0.5
vt 0.0332031 0.5
vt 0.0527344 0.5
vt 0.0644531 0.5

# verts
v -52 0 -16
v -52 0 -24
v -52 0 -34
v -52 0 -36
v -52 0 -48
v -52 0 -56
v -52 1 -16
v -52 1 -17
v -52 1 -24
v -52 1 -34
v -52 1 -36
v -52 1 -48
v -52 1 -55
v -52 1 -56
v -52 2 -16
v -52 2 -17
v -52 2 -24
v -52 2 -48
v -52 2 -55
v -52 2 -56
v -40 0 56
v -40 0 55
v -40 0 -16
v -40 1 55
v -40 1 -16
v -40 2 56
v -40 2 -16
v 44 1 -24
v 44 1 -25
v 44 1 -26
v 44 1 -35
v 44 1 -36
v 44 1 -45
v 44 1 -46
v 44 1 -55
v 44 1 -56
v 44 2 -24
v 44 2 -25
v 44 2 -26
v 44 2 -35
v 44 2 -36
v 44 2 -45
v 44 2 -46
v 44 2 -55
v 44 2 -56
v -32 0 56
v -32 0 44
v -32 0 43
v -32 0 34
v -32 0 33
v -32 0 24
v -32 0 23
v -32 0 14
v -32 0 13
v -32 0 4
v -32 0 3
v -32 0 -6
v -32 0 -7
v -32 0 -16
v -32 1 -16
v -32 2 56
v -32 2 44
v -32 2 43
v -32 2 34
v -32 2 33
v -32 2 24
v -32 2 23
v -32 2 14
v -32 2 13
v -32 2 4
v -32 2 3
v -32 2 -6
v -32 2 -7
v -32 2 -16
v 20 1 -48
v 20 1 -56
v 20 2 -48
v 20 2 -56
v 52 0 -16
v 52 0 -56
v 52 1 -16
v 52 1 -56
v 52 2 -16
v 52 2 -56
v -40 0 56
v -40 2 56
v -39 0 56
v -39 2 56
v -32 0 56
v -32 2 56
v -52 0 -16
v -52 1 -16
v -52 2 -16
v -40 0 -16
v -40 1 -16
v -40 2 -16
v -32 0 -16
v -32 1 -16
v -32 2 -16
v 52 0 -16
v 52 1 -16
v 52 2 -16
v -52 1 -48
v -52 2 -48
v -48 1 -48
v -48 2 -48
v -47 1 -48
v -47 2 -48
v -38 1 -48
v -38 2 -48
v -37 1 -48
v -37 2 -48
v -28 1 -48
v -28 2 -48
v -27 1 -48
v -27 2 -48
v -18 1 -48
v -18 2 -48
v -17 1 -48
v -17 2 -48
v -8 1 -48
v -8 2 -48
v -7 1 -48
v -7 2 -48
v 2 1 -48
v 2 2 -48
v 3 1 -48
v 3 2 -48
v 20 1 -48
v 20 2 -48
v -52 1 -24
v -52 2 -24
v -48 1 -24
v -48 2 -24
v -47 1 -24
v -47 2 -24
v -38 1 -24
v -38 2 -24
v -37 1 -24
v -37 2 -24
v -28 1 -24
v -28 2 -24
v -27 1 -24
v -27 2 -24
v -18 1 -24
v -18 2 -24
v -17 1 -24
v -17 2 -24
v -8 1 -24
v -8 2 -24
v -7 1 -24
v -7 2 -24
v 2 1 -24
v 2 2 -24
v 3 1 -24
v 3 2 -24
v 14 1 -24
v 14 2 -24
v 15 1 -24
v 15 2 -24
v 24 1 -24
v 24 2 -24
v 25 1 -24
v 25 2 -24
v 34 1 -24
v 34 2 -24
v 35 1 -24
v 35 2 -24
v 42 1 -24
v 42 2 -24
v 43 1 -24
v 43 2 -24
v 44 1 -24
v 44 2 -24
v -52 0 -56
v -52 1 -56
v -52 2 -56
v 12 0 -56
v 12 1 -56
v 13 1 -56
v 13 2 -56
v 20 1 -56
v 20 2 -56
v 44 1 -56
v 44 2 -56
v 49 0 -56
v 49 1 -56
v 52 0 -56
v 52 1 -56
v 52 2 -56
v -40 0 56
v -39 0 56
v -32 0 56
v -40 0 55
v -39 0 55
v -39 0 47
v -33 0 47
v -33 0 44
v -32 0 44
v -33 0 43
v -32 0 43
v -33 0 34
v -32 0 34
v -33 0 33
v -32 0 33
v -33 0 24
v -32 0 24
v -33 0 23
v -32 0 23
v -33 0 14
v -32 0 14
v -33 0 13
v -32 0 13
v -33 0 4
v -32 0 4
v -33 0 3
v -32 0 3
v -33 0 -6
v -32 0 -6
v -33 0 -7
v -32 0 -7
v -39 0 -15
v -33 0 -15
v -52 0 -16
v -40 0 -16
v -32 0 -16
v 52 0 -16
v -51 0 -17
v 11 0 -17
v 12 0 -17
v 49 0 -17
v -52 0 -24
v -51 0 -24
v 11 0 -24
v 12 0 -24
v -52 0 -34
v -48 0 -34
v -39 0 -34
v -28 0 -34
v -19 0 -34
v -8 0 -34
v 1 0 -34
v 12 0 -34
v -52 0 -36
v -48 0 -36
v -39 0 -36
v -28 0 -36
v -19 0 -36
v -8 0 -36
v 1 0 -36
v 12 0 -36
v -52 0 -48
v -51 0 -48
v 11 0 -48
v 12 0 -48
v -51 0 -55
v 11 0 -55
v -52 0 -56
v 12 0 -56
v 49 0 -56
v 52 0 -56
v -52 1 -24
v -48 1 -24
v -47 1 -24
v -38 1 -24
v -37 1 -24
v -28 1 -24
v -27 1 -24
v -18 1 -24
v -17 1 -24
v -8 1 -24
v -7 1 -24
v 2 1 -24
v 3 1 -24
v 14 1 -24
v 15 1 -24
v 24 1 -24
v 25 1 -24
v 34 1 -24
v 35 1 -24
v 42 1 -24
v 43 1 -24
v 44 1 -24
v 44 1 -25
v 44 1 -26
v -52 1 -34
v -48 1 -34
v -39 1 -34
v -28 1 -34
v -19 1 -34
v -8 1 -34
v 1 1 -34
v 12 1 -34
v 44 1 -35
v -52 1 -36
v -48 1 -36
v -39 1 -36
v -28 1 -36
v -19 1 -36
v -8 1 -36
v 1 1 -36
v 12 1 -36
v 44 1 -36
v 44 1 -45
v 44 1 -46
v -52 1 -48
v -48 1 -48
v -47 1 -48
v -38 1 -48
v -37 1 -48
v -28 1 -48
v -27 1 -48
v -18 1 -48
v -17 1 -48
v -8 1 -48
v -7 1 -48
v 2 1 -48
v 3 1 -48
v 20 1 -48
v 44 1 -55
v 20 1 -56
v 44 1 -56
v -40 2 56
v -39 2 56
v -32 2 56
v -39 2 44
v -32 2 44
v -39 2 43
v -32 2 43
v -39 2 34
v -32 2 34
v -39 2 33
v -32 2 33
v -39 2 24
v -32 2 24
v -39 2 23
v -32 2 23
v -39 2 14
v -32 2 14
v -39 2 13
v -32 2 13
v -39 2 4
v -32 2 4
v -39 2 3
v -32 2 3
v -39 2 -6
v -32 2 -6
v -39 2 -7
v -32 2 -7
v -52 2 -16
v -40 2 -16
v -39 2 -16
v -32 2 -16
v 52 2 -16
v -52 2 -17
v -48 2 -17
v -47 2 -17
v -38 2 -17
v -37 2 -17
v -28 2 -17
v -27 2 -17
v -18 2 -17
v -17 2 -17
v -8 2 -17
v -7 2 -17
v 2 2 -17
v 3 2 -17
v 14 2 -17
v 15 2 -17
v 24 2 -17
v 25 2 -17
v 34 2 -17
v 35 2 -17
v 42 2 -17
v 43 2 -17
v 51 2 -17
v -52 2 -24
v -48 2 -24
v -47 2 -24
v -38 2 -24
v -37 2 -24
v -28 2 -24
v -27 2 -24
v -18 2 -24
v -17 2 -24
v -8 2 -24
v -7 2 -24
v 2 2 -24
v 3 2 -24
v 14 2 -24
v 15 2 -24
v 24 2 -24
v 25 2 -24
v 34 2 -24
v 35 2 -24
v 42 2 -24
v 43 2 -24
v 44 2 -24
v 44 2 -25
v 51 2 -25
v 44 2 -26
v 51 2 -26
v 44 2 -35
v 51 2 -35
v 44 2 -36
v 51 2 -36
v 44 2 -45
v 51 2 -45
v 44 2 -46
v 51 2 -46
v -52 2 -48
v -48 2 -48
v -47 2 -48
v -38 2 -48
v -37 2 -48
v -28 2 -48
v -27 2 -48
v -18 2 -48
v -17 2 -48
v -8 2 -48
v -7 2 -48
v 2 2 -48
v 3 2 -48
v 20 2 -48
v -52 2 -55
v -48 2 -55
v -47 2 -55
v -38 2 -55
v -37 2 -55
v -28 2 -55
v -27 2 -55
v -18 2 -55
v -17 2 -55
v -8 2 -55
v -7 2 -55
v 2 2 -55
v 3 2 -55
v 13 2 -55
v 44 2 -55
v 51 2 -55
v -52 2 -56
v 13 2 -56
v 20 2 -56
v 44 2 -56
v 52 2 -56

# faces
f 7/1/1 2/1/1 1/1/1
f 8/1/1 2/1/1 7/1/1
f 9/3/1 3/3/1 2/3/1
f 9/1/1 2/1/1 8/1/1
f 10/4/1 4/4/1 3/4/1
f 10/3/1 3/3/1 9/3/1
f 11/3/1 5/3/1 4/3/1
f 11/4/1 4/4/1 10/4/1
f 12/1/1 6/1/1 5/1/1
f 12/3/1 5/3/1 11/3/1
f 13/1/1 6/1/1 12/1/1
f 14/1/1 6/1/1 13/1/1
f 15/2/1 8/2/1 7/2/1
f 16/1/1 9/1/1 8/1/1
f 16/2/1 8/2/1 15/2/1
f 17/1/1 9/1/1 16/1/1
f 18/1/1 13/1/1 12/1/1
f 19/2/1 14/2/1 13/2/1
f 19/1/1 13/1/1 18/1/1
f 20/2/1 14/2/1 19/2/1
f 24/2/1 22/2/1 21/2/1
f 24/1/1 23/1/1 22/1/1
f 25/1/1 23/1/1 24/1/1
f 26/2/1 24/2/1 21/2/1
f 26/2/1 25/2/1 24/2/1
f 27/2/1 25/2/1 26/2/1
f 37/1/1 29/1/1 28/1/1
f 38/2/1 30/2/1 29/2/1
f 38/1/1 29/1/1 37/1/1
f 39/1/1 31/1/1 30/1/1
f 39/2/1 30/2/1 38/2/1
f 40/2/1 32/2/1 31/2/1
f 40/1/1 31/1/1 39/1/1
f 41/1/1 33/1/1 32/1/1
f 41/2/1 32/2/1 40/2/1
f 42/2/1 34/2/1 33/2/1
f 42/1/1 33/1/1 41/1/1
f 43/1/1 35/1/1 34/1/1
f 43/2/1 34/2/1 42/2/1
f 44/2/1 36/2/1 35/2/1
f 44/1/1 35/1/1 43/1/1
f 45/2/1 36/2/1 44/2/1
f 58/1/2 59/1/2 60/1/2
f 46/1/2 47/1/2 61/1/2
f 47/2/2 48/2/2 62/2/2
f 61/1/2 47/1/2 62/1/2
f 48/1/2 49/1/2 63/1/2
f 62/2/2 48/2/2 63/2/2
f 49/2/2 50/2/2 64/2/2
f 63/1/2 49/1/2 64/1/2
f 50/1/2 51/1/2 65/1/2
f 64/2/2 50/2/2 65/2/2
f 51/2/2 52/2/2 66/2/2
f 65/1/2 51/1/2 66/1/2
f 52/1/2 53/1/2 67/1/2
f 66/2/2 52/2/2 67/2/2
f 53/2/2 54/2/2 68/2/2
f 67/1/2 53/1/2 68/1/2
f 54/1/2 55/1/2 69/1/2
f 68/2/2 54/2/2 69/2/2
f 55/2/2 56/2/2 70/2/2
f 69/1/2 55/1/2 70/1/2
f 56/1/2 57/1/2 71/1/2
f 70/2/2 56/2/2 71/2/2
f 57/2/2 58/2/2 72/2/2
f 71/1/2 57/1/2 72/1/2
f 58/1/2 60/1/2 73/1/2
f 72/2/2 58/2/2 73/2/2
f 73/1/2 60/1/2 74/1/2
f 75/1/2 76/1/2 77/1/2
f 77/1/2 76/1/2 78/1/2
f 79/1/2 80/1/2 81/1/2
f 81/1/2 80/1/2 82/1/2
f 81/2/2 82/2/2 83/2/2
f 83/2/2 82/2/2 84/2/2
f 87/2/3 86/2/3 85/2/3
f 88/2/3 86/2/3 87/2/3
f 89/1/3 88/1/3 87/1/3
f 90/1/3 88/1/3 89/1/3
f 94/1/3 92/1/3 91/1/3
f 95/2/3 93/2/3 92/2/3
f 95/1/3 92/1/3 94/1/3
f 96/2/3 93/2/3 95/2/3
f 100/1/3 98/1/3 97/1/3
f 101/2/3 99/2/3 98/2/3
f 101/1/3 98/1/3 100/1/3
f 102/2/3 99/2/3 101/2/3
f 105/1/3 104/1/3 103/1/3
f 106/1/3 104/1/3 105/1/3
f 107/2/3 106/2/3 105/2/3
f 108/2/3 106/2/3 107/2/3
f 109/1/3 108/1/3 107/1/3
f 110/1/3 108/1/3 109/1/3
f 111/2/3 110/2/3 109/2/3
f 112/2/3 110/2/3 111/2/3
f 113/1/3 112/1/3 111/1/3
f 114/1/3 112/1/3 113/1/3
f 115/2/3 114/2/3 113/2/3
f 116/2/3 114/2/3 115/2/3
f 117/1/3 116/1/3 115/1/3
f 118/1/3 116/1/3 117/1/3
f 119/2/3 118/2/3 117/2/3
f 120/2/3 118/2/3 119/2/3
f 121/1/3 120/1/3 119/1/3
f 122/1/3 120/1/3 121/1/3
f 123/2/3 122/2/3 121/2/3
f 124/2/3 122/2/3 123/2/3
f 125/1/3 124/1/3 123/1/3
f 126/1/3 124/1/3 125/1/3
f 127/2/3 126/2/3 125/2/3
f 128/2/3 126/2/3 127/2/3
f 129/1/3 128/1/3 127/1/3
f 130/1/3 128/1/3 129/1/3
f 131/1/4 132/1/4 133/1/4
f 133/1/4 132/1/4 134/1/4
f 133/2/4 134/2/4 135/2/4
f 135/2/4 134/2/4 136/2/4
f 135/1/4 136/1/4 137/1/4
f 137/1/4 136/1/4 138/1/4
f 137/2/4 138/2/4 139/2/4
f 139/2/4 138/2/4 140/2/4
f 139/1/4 140/1/4 141/1/4
f 141/1/4 140/1/4 142/1/4
f 141/2/4 142/2/4 143/2/4
f 143/2/4 142/2/4 144/2/4
f 143/1/4 144/1/4 145/1/4
f 145/1/4 144/1/4 146/1/4
f 145/2/4 146/2/4 147/2/4
f 147/2/4 146/2/4 148/2/4
f 147/1/4 148/1/4 149/1/4
f 149/1/4 148/1/4 150/1/4
f 149/2/4 150/2/4 151/2/4
f 151/2/4 150/2/4 152/2/4
f 151/1/4 152/1/4 153/1/4
f 153/1/4 152/1/4 154/1/4
f 153/2/4 154/2/4 155/2/4
f 155/2/4 154/2/4 156/2/4
f 155/1/4 156/1/4 157/1/4
f 157/1/4 156/1/4 158/1/4
f 157/2/4 158/2/4 159/2/4
f 159/2/4 158/2/4 160/2/4
f 159/1/4 160/1/4 161/1/4
f 161/1/4 160/1/4 162/1/4
f 161/2/4 162/2/4 163/2/4
f 163/2/4 162/2/4 164/2/4
f 163/1/4 164/1/4 165/1/4
f 165/1/4 164/1/4 166/1/4
f 165/2/4 166/2/4 167/2/4
f 167/2/4 166/2/4 168/2/4
f 167/1/4 168/1/4 169/1/4
f 169/1/4 168/1/4 170/1/4
f 169/2/4 170/2/4 171/2/4
f 171/2/4 170/2/4 172/2/4
f 171/1/4 172/1/4 173/1/4
f 173/1/4 172/1/4 174/1/4
f 175/1/4 176/1/4 178/1/4
f 176/2/4 177/2/4 179/2/4
f 178/1/4 176/1/4 179/1/4
f 178/3/4 179/3/4 180/3/4
f 179/2/4 177/2/4 180/2/4
f 180/2/4 177/2/4 181/2/4
f 178/3/4 180/3/4 182/3/4
f 180/1/4 181/1/4 182/1/4
f 182/1/4 181/1/4 183/1/4
f 178/3/4 182/3/4 184/3/4
f 178/3/4 184/3/4 186/3/4
f 184/2/4 185/2/4 187/2/4
f 186/3/4 184/3/4 187/3/4
f 186/1/4 187/1/4 188/1/4
f 187/2/4 185/2/4 189/2/4
f 188/1/4 187/1/4 189/1/4
f 189/2/4 185/2/4 190/2/4
f 194/2/5 192/2/5 191/2/5
f 195/1/5 193/1/5 192/1/5
f 195/2/5 192/2/5 194/2/5
f 196/1/5 195/1/5 194/1/5
f 196/1/5 193/1/5 195/1/5
f 197/1/5 193/1/5 196/1/5
f 198/3/5 197/3/5 196/3/5
f 198/1/5 193/1/5 197/1/5
f 199/1/5 193/1/5 198/1/5
f 200/3/5 198/3/5 196/3/5
f 200/2/5 199/2/5 198/2/5
f 201/2/5 199/2/5 200/2/5
f 202/3/5 200/3/5 196/3/5
f 202/1/5 201/1/5 200/1/5
f 203/1/5 201/1/5 202/1/5
f 204/3/5 202/3/5 196/3/5
f 204/2/5 203/2/5 202/2/5
f 205/2/5 203/2/5 204/2/5
f 206/3/5 204/3/5 196/3/5
f 206/1/5 205/1/5 204/1/5
f 207/1/5 205/1/5 206/1/5
f 208/3/5 206/3/5 196/3/5
f 208/2/5 207/2/5 206/2/5
f 209/2/5 207/2/5 208/2/5
f 210/3/5 208/3/5 196/3/5
f 210/1/5 209/1/5 208/1/5
f 211/1/5 209/1/5 210/1/5
f 212/3/5 210/3/5 196/3/5
f 212/2/5 211/2/5 210/2/5
f 213/2/5 211/2/5 212/2/5
f 214/3/5 212/3/5 196/3/5
f 214/1/5 213/1/5 212/1/5
f 215/1/5 213/1/5 214/1/5
f 216/3/5 214/3/5 196/3/5
f 216/2/5 215/2/5 214/2/5
f 217/2/5 215/2/5 216/2/5
f 218/3/5 216/3/5 196/3/5
f 218/1/5 217/1/5 216/1/5
f 219/1/5 217/1/5 218/1/5
f 220/3/5 218/3/5 196/3/5
f 220/2/5 219/2/5 218/2/5
f 221/2/5 219/2/5 220/2/5
f 222/1/5 196/1/5 194/1/5
f 222/3/5 220/3/5 196/3/5
f 223/1/5 221/1/5 220/1/5
f 223/3/5 220/3/5 222/3/5
f 225/1/5 222/1/5 194/1/5
f 225/1/5 223/1/5 222/1/5
f 226/1/5 221/1/5 223/1/5
f 226/1/5 223/1/5 225/1/5
f 228/1/5 226/1/5 225/1/5
f 228/1/5 227/1/5 226/1/5
f 228/1/5 225/1/5 224/1/5
f 229/1/5 227/1/5 228/1/5
f 230/1/5 227/1/5 229/1/5
f 231/1/5 227/1/5 230/1/5
f 232/1/5 228/1/5 224/1/5
f 233/3/5 229/3/5 228/3/5
f 233/1/5 228/1/5 232/1/5
f 234/1/5 230/1/5 229/1/5
f 234/3/5 229/3/5 233/3/5
f 235/3/5 231/3/5 230/3/5
f 235/1/5 230/1/5 234/1/5
f 236/3/5 233/3/5 232/3/5
f 236/3/5 234/3/5 233/3/5
f 236/3/5 235/3/5 234/3/5
f 237/3/5 235/3/5 236/3/5
f 238/3/5 235/3/5 237/3/5
f 239/3/5 235/3/5 238/3/5
f 240/3/5 235/3/5 239/3/5
f 241/3/5 235/3/5 240/3/5
f 242/3/5 235/3/5 241/3/5
f 243/3/5 231/3/5 235/3/5
f 243/3/5 235/3/5 242/3/5
f 244/4/5 237/4/5 236/4/5
f 245/3/5 238/3/5 237/3/5
f 245/4/5 237/4/5 244/4/5
f 246/4/5 239/4/5 238/4/5
f 246/3/5 238/3/5 245/3/5
f 247/3/5 240/3/5 239/3/5
f 247/4/5 239/4/5 246/4/5
f 248/4/5 241/4/5 240/4/5
f 248/3/5 240/3/5 247/3/5
f 249/3/5 242/3/5 241/3/5
f 249/4/5 241/4/5 248/4/5
f 250/4/5 243/4/5 242/4/5
f 250/3/5 242/3/5 249/3/5
f 251/3/5 231/3/5 243/3/5
f 251/4/5 243/4/5 250/4/5
f 252/3/5 248/3/5 247/3/5
f 252/3/5 250/3/5 249/3/5
f 252/3/5 251/3/5 250/3/5
f 252/3/5 249/3/5 248/3/5
f 252/3/5 247/3/5 246/3/5
f 252/3/5 246/3/5 245/3/5
f 252/3/5 245/3/5 244/3/5
f 253/3/5 251/3/5 252/3/5
f 254/3/5 251/3/5 253/3/5
f 255/3/5 231/3/5 251/3/5
f 255/3/5 251/3/5 254/3/5
f 256/3/5 254/3/5 253/3/5
f 256/1/5 253/1/5 252/1/5
f 257/1/5 255/1/5 254/1/5
f 257/3/5 254/3/5 256/3/5
f 258/1/5 256/1/5 252/1/5
f 258/1/5 257/1/5 256/1/5
f 259/3/5 231/3/5 255/3/5
f 259/1/5 257/1/5 258/1/5
f 259/1/5 255/1/5 257/1/5
f 260/1/5 227/1/5 231/1/5
f 260/3/5 231/3/5 259/3/5
f 261/1/5 227/1/5 260/1/5
f 262/3/6 263/3/6 284/3/6
f 282/3/6 283/3/6 284/3/6
f 281/3/6 282/3/6 284/3/6
f 280/3/6 281/3/6 284/3/6
f 279/3/6 280/3/6 284/3/6
f 278/3/6 279/3/6 284/3/6
f 277/3/6 278/3/6 284/3/6
f 276/3/6 277/3/6 284/3/6
f 275/3/6 276/3/6 284/3/6
f 274/3/6 275/3/6 284/3/6
f 273/3/6 274/3/6 284/3/6
f 272/3/6 273/3/6 284/3/6
f 271/3/6 272/3/6 284/3/6
f 270/3/6 271/3/6 284/3/6
f 269/3/6 270/3/6 284/3/6
f 268/3/6 269/3/6 284/3/6
f 267/3/6 268/3/6 284/3/6
f 266/3/6 267/3/6 284/3/6
f 265/3/6 266/3/6 284/3/6
f 264/3/6 265/3/6 284/3/6
f 263/3/6 264/3/6 284/3/6
f 262/3/6 284/3/6 285/3/6
f 262/3/6 285/3/6 286/3/6
f 286/3/6 285/3/6 287/3/6
f 287/3/6 285/3/6 288/3/6
f 288/3/6 285/3/6 289/3/6
f 289/3/6 285/3/6 290/3/6
f 290/3/6 285/3/6 291/3/6
f 291/3/6 285/3/6 292/3/6
f 292/3/6 285/3/6 293/3/6
f 293/3/6 285/3/6 294/3/6
f 286/4/6 287/4/6 295/4/6
f 287/3/6 288/3/6 296/3/6
f 295/4/6 287/4/6 296/4/6
f 288/4/6 289/4/6 297/4/6
f 296/3/6 288/3/6 297/3/6
f 289/3/6 290/3/6 298/3/6
f 297/4/6 289/4/6 298/4/6
f 290/4/6 291/4/6 299/4/6
f 298/3/6 290/3/6 299/3/6
f 291/3/6 292/3/6 300/3/6
f 299/4/6 291/4/6 300/4/6
f 292/4/6 293/4/6 301/4/6
f 300/3/6 292/3/6 301/3/6
f 293/3/6 294/3/6 302/3/6
f 301/4/6 293/4/6 302/4/6
f 302/3/6 294/3/6 303/3/6
f 295/3/6 296/3/6 304/3/6
f 296/3/6 297/3/6 304/3/6
f 302/3/6 303/3/6 304/3/6
f 301/3/6 302/3/6 304/3/6
f 300/3/6 301/3/6 304/3/6
f 299/3/6 300/3/6 304/3/6
f 298/3/6 299/3/6 304/3/6
f 297/3/6 298/3/6 304/3/6
f 295/3/6 304/3/6 305/3/6
f 295/3/6 305/3/6 306/3/6
f 306/3/6 305/3/6 307/3/6
f 307/3/6 305/3/6 308/3/6
f 308/3/6 305/3/6 309/3/6
f 309/3/6 305/3/6 310/3/6
f 310/3/6 305/3/6 311/3/6
f 311/3/6 305/3/6 312/3/6
f 312/3/6 305/3/6 313/3/6
f 313/3/6 305/3/6 314/3/6
f 314/3/6 305/3/6 315/3/6
f 315/3/6 305/3/6 316/3/6
f 316/3/6 305/3/6 317/3/6
f 317/3/6 305/3/6 318/3/6
f 318/3/6 305/3/6 319/3/6
f 319/3/6 305/3/6 320/3/6
f 319/3/6 320/3/6 321/3/6
f 321/3/6 320/3/6 322/3/6
f 323/2/6 324/2/6 326/2/6
f 324/1/6 325/1/6 326/1/6
f 326/1/6 325/1/6 327/1/6
f 323/2/6 326/2/6 328/2/6
f 326/2/6 327/2/6 328/2/6
f 328/2/6 327/2/6 329/2/6
f 323/2/6 328/2/6 330/2/6
f 328/1/6 329/1/6 330/1/6
f 330/1/6 329/1/6 331/1/6
f 323/2/6 330/2/6 332/2/6
f 330/2/6 331/2/6 332/2/6
f 332/2/6 331/2/6 333/2/6
f 323/2/6 332/2/6 334/2/6
f 332/1/6 333/1/6 334/1/6
f 334/1/6 333/1/6 335/1/6
f 323/2/6 334/2/6 336/2/6
f 334/2/6 335/2/6 336/2/6
f 336/2/6 335/2/6 337/2/6
f 323/2/6 336/2/6 338/2/6
f 336/1/6 337/1/6 338/1/6
f 338/1/6 337/1/6 339/1/6
f 323/2/6 338/2/6 340/2/6
f 338/2/6 339/2/6 340/2/6
f 340/2/6 339/2/6 341/2/6
f 323/2/6 340/2/6 342/2/6
f 340/1/6 341/1/6 342/1/6
f 342/1/6 341/1/6 343/1/6
f 323/2/6 342/2/6 344/2/6
f 342/2/6 343/2/6 344/2/6
f 344/2/6 343/2/6 345/2/6
f 323/2/6 344/2/6 346/2/6
f 344/1/6 345/1/6 346/1/6
f 346/1/6 345/1/6 347/1/6
f 323/2/6 346/2/6 348/2/6
f 346/2/6 347/2/6 348/2/6
f 348/2/6 347/2/6 349/2/6
f 323/2/6 348/2/6 351/2/6
f 348/1/6 349/1/6 352/1/6
f 351/2/6 348/2/6 352/2/6
f 352/1/6 349/1/6 353/1/6
f 352/2/6 353/2/6 355/2/6
f 353/2/6 354/2/6 355/2/6
f 350/2/6 351/2/6 355/2/6
f 351/2/6 352/2/6 355/2/6
f 355/2/6 354/2/6 356/2/6
f 356/2/6 354/2/6 357/2/6
f 357/2/6 354/2/6 358/2/6
f 358/2/6 354/2/6 359/2/6
f 359/2/6 354/2/6 360/2/6
f 360/2/6 354/2/6 361/2/6
f 361/2/6 354/2/6 362/2/6
f 362/2/6 354/2/6 363/2/6
f 363/2/6 354/2/6 364/2/6
f 364/2/6 354/2/6 365/2/6
f 365/2/6 354/2/6 366/2/6
f 366/2/6 354/2/6 367/2/6
f 367/2/6 354/2/6 368/2/6
f 368/2/6 354/2/6 369/2/6
f 369/2/6 354/2/6 370/2/6
f 370/2/6 354/2/6 371/2/6
f 371/2/6 354/2/6 372/2/6
f 372/2/6 354/2/6 373/2/6
f 373/2/6 354/2/6 374/2/6
f 374/2/6 354/2/6 375/2/6
f 375/2/6 354/2/6 376/2/6
f 355/1/6 356/1/6 377/1/6
f 356/2/6 357/2/6 378/2/6
f 377/1/6 356/1/6 378/1/6
f 357/1/6 358/1/6 379/1/6
f 378/2/6 357/2/6 379/2/6
f 358/2/6 359/2/6 380/2/6
f 379/1/6 358/1/6 380/1/6
f 359/1/6 360/1/6 381/1/6
f 380/2/6 359/2/6 381/2/6
f 360/2/6 361/2/6 382/2/6
f 381/1/6 360/1/6 382/1/6
f 361/1/6 362/1/6 383/1/6
f 382/2/6 361/2/6 383/2/6
f 362/2/6 363/2/6 384/2/6
f 383/1/6 362/1/6 384/1/6
f 363/1/6 364/1/6 385/1/6
f 384/2/6 363/2/6 385/2/6
f 364/2/6 365/2/6 386/2/6
f 385/1/6 364/1/6 386/1/6
f 365/1/6 366/1/6 387/1/6
f 386/2/6 365/2/6 387/2/6
f 366/2/6 367/2/6 388/2/6
f 387/1/6 366/1/6 388/1/6
f 367/1/6 368/1/6 389/1/6
f 388/2/6 367/2/6 389/2/6
f 368/2/6 369/2/6 390/2/6
f 389/1/6 368/1/6 390/1/6
f 369/1/6 370/1/6 391/1/6
f 390/2/6 369/2/6 391/2/6
f 370/2/6 371/2/6 392/2/6
f 391/1/6 370/1/6 392/1/6
f 371/1/6 372/1/6 393/1/6
f 392/2/6 371/2/6 393/2/6
f 372/2/6 373/2/6 394/2/6
f 393/1/6 372/1/6 394/1/6
f 373/1/6 374/1/6 395/1/6
f 394/2/6 373/2/6 395/2/6
f 374/2/6 375/2/6 396/2/6
f 395/1/6 374/1/6 396/1/6
f 375/1/6 376/1/6 397/1/6
f 396/2/6 375/2/6 397/2/6
f 397/1/6 376/1/6 398/1/6
f 398/1/6 376/1/6 399/1/6
f 376/2/6 354/2/6 400/2/6
f 399/1/6 376/1/6 400/1/6
f 399/2/6 400/2/6 401/2/6
f 400/2/6 354/2/6 402/2/6
f 401/2/6 400/2/6 402/2/6
f 401/1/6 402/1/6 403/1/6
f 402/2/6 354/2/6 404/2/6
f 403/1/6 402/1/6 404/1/6
f 403/2/6 404/2/6 405/2/6
f 404/2/6 354/2/6 406/2/6
f 405/2/6 404/2/6 406/2/6
f 405/1/6 406/1/6 407/1/6
f 406/2/6 354/2/6 408/2/6
f 407/1/6 406/1/6 408/1/6
f 407/2/6 408/2/6 409/2/6
f 408/2/6 354/2/6 410/2/6
f 409/2/6 408/2/6 410/2/6
f 411/1/6 412/1/6 425/1/6
f 412/2/6 413/2/6 426/2/6
f 425/1/6 412/1/6 426/1/6
f 413/1/6 414/1/6 427/1/6
f 426/2/6 413/2/6 427/2/6
f 414/2/6 415/2/6 428/2/6
f 427/1/6 414/1/6 428/1/6
f 415/1/6 416/1/6 429/1/6
f 428/2/6 415/2/6 429/2/6
f 416/2/6 417/2/6 430/2/6
f 429/1/6 416/1/6 430/1/6
f 417/1/6 418/1/6 431/1/6
f 430/2/6 417/2/6 431/2/6
f 418/2/6 419/2/6 432/2/6
f 431/1/6 418/1/6 432/1/6
f 419/1/6 420/1/6 433/1/6
f 432/2/6 419/2/6 433/2/6
f 420/2/6 421/2/6 434/2/6
f 433/1/6 420/1/6 434/1/6
f 421/1/6 422/1/6 435/1/6
f 434/2/6 421/2/6 435/2/6
f 422/2/6 423/2/6 436/2/6
f 435/1/6 422/1/6 436/1/6
f 423/1/6 424/1/6 437/1/6
f 436/2/6 423/2/6 437/2/6
f 437/1/6 424/1/6 438/1/6
f 409/1/6 410/1/6 439/1/6
f 410/2/6 354/2/6 440/2/6
f 439/1/6 410/1/6 440/1/6
f 435/2/6 436/2/6 441/2/6
f 425/2/6 426/2/6 441/2/6
f 426/2/6 427/2/6 441/2/6
f 437/2/6 438/2/6 441/2/6
f 436/2/6 437/2/6 441/2/6
f 434/2/6 435/2/6 441/2/6
f 433/2/6 434/2/6 441/2/6
f 432/2/6 433/2/6 441/2/6
f 431/2/6 432/2/6 441/2/6
f 430/2/6 431/2/6 441/2/6
f 429/2/6 430/2/6 441/2/6
f 428/2/6 429/2/6 441/2/6
f 427/2/6 428/2/6 441/2/6
f 438/1/6 424/1/6 442/1/6
f 441/2/6 438/2/6 442/2/6
f 442/1/6 424/1/6 443/1/6
f 439/2/6 440/2/6 444/2/6
f 440/2/6 354/2/6 445/2/6
f 444/2/6 440/2/6 445/2/6
