# MagicaVoxel @ Ephtracy

# group
g store_fill-5

# material
mtllib store_fill-5.mtl
usemtl palette

# normals
vn -1 0 0
vn 1 0 0
vn 0 0 1
vn 0 0 -1
vn 0 -1 0
vn 0 1 0

# texcoords
vt 0.0292969 0.5
vt 0.0332031 0.5
vt 0.0527344 0.5
vt 0.0644531 0.5

# verts
v -32 0 56
v -32 0 48
v -32 1 49
v -32 1 48
v -32 2 56
v -32 2 49
v -32 2 48
v -20 0 -16
v -20 0 -17
v -20 0 -56
v -20 1 -16
v -20 1 -17
v -20 1 -24
v -20 1 -48
v -20 1 -55
v -20 1 -56
v -20 2 -16
v -20 2 -17
v -20 2 -24
v -20 2 -48
v -20 2 -55
v -20 2 -56
v 12 1 -48
v 12 1 -56
v 12 2 -48
v 12 2 -56
v -12 1 -48
v -12 1 -56
v -12 2 -48
v -12 2 -56
v 20 0 -16
v 20 0 -17
v 20 0 -34
v 20 0 -36
v 20 0 -56
v 20 1 -16
v 20 1 -17
v 20 1 -24
v 20 1 -34
v 20 1 -36
v 20 1 -48
v 20 1 -55
v 20 1 -56
v 20 2 -16
v 20 2 -17
v 20 2 -24
v 20 2 -48
v 20 2 -55
v 20 2 -56
v 32 0 56
v 32 0 48
v 32 1 49
v 32 1 48
v 32 2 56
v 32 2 49
v 32 2 48
v -32 0 56
v -32 2 56
v -28 0 56
v -28 2 56
v -27 0 56
v -27 2 56
v -18 0 56
v -18 2 56
v -17 0 56
v -17 2 56
v -8 0 56
v -8 2 56
v -7 0 56
v -7 2 56
v 2 0 56
v 2 2 56
v 3 0 56
v 3 2 56
v 12 0 56
v 12 2 56
v 13 0 56
v 13 2 56
v 22 0 56
v 22 2 56
v 23 0 56
v 23 2 56
v 32 0 56
v 32 2 56
v -20 0 -16
v -20 1 -16
v -20 2 -16
v 20 0 -16
v 20 1 -16
v 20 2 -16
v -20 1 -48
v -20 2 -48
v -12 1 -48
v -12 2 -48
v 12 1 -48
v 12 2 -48
v 20 1 -48
v 20 2 -48
v -32 0 48
v -32 1 48
v -32 2 48
v 32 0 48
v 32 1 48
v 32 2 48
v -20 1 -24
v -20 2 -24
v -18 1 -24
v -18 2 -24
v -17 1 -24
v -17 2 -24
v -8 1 -24
v -8 2 -24
v -7 1 -24
v -7 2 -24
v 2 1 -24
v 2 2 -24
v 3 1 -24
v 3 2 -24
v 12 1 -24
v 12 2 -24
v 13 1 -24
v 13 2 -24
v 20 1 -24
v 20 2 -24
v -20 0 -56
v -20 1 -56
v -20 2 -56
v -19 1 -56
v -19 2 -56
v -12 1 -56
v -12 2 -56
v 12 1 -56
v 12 2 -56
v 19 1 -56
v 19 2 -56
v 20 0 -56
v 20 1 -56
v 20 2 -56
v -32 0 56
v -28 0 56
v -27 0 56
v -18 0 56
v -17 0 56
v -8 0 56
v -7 0 56
v 2 0 56
v 3 0 56
v 12 0 56
v 13 0 56
v 22 0 56
v 23 0 56
v 32 0 56
v -31 0 55
v -28 0 55
v -27 0 55
v -18 0 55
v -17 0 55
v -8 0 55
v -7 0 55
v 2 0 55
v 3 0 55
v 12 0 55
v 13 0 55
v 22 0 55
v 23 0 55
v 31 0 55
v -31 0 49
v 31 0 49
v -32 0 48
v 32 0 48
v -20 0 -16
v 20 0 -16
v -20 0 -17
v 20 0 -17
v 15 0 -34
v 20 0 -34
v 15 0 -36
v 20 0 -36
v -20 0 -56
v 20 0 -56
v -20 1 -24
v -18 1 -24
v -17 1 -24
v -8 1 -24
v -7 1 -24
v 2 1 -24
v 3 1 -24
v 12 1 -24
v 13 1 -24
v 20 1 -24
v 15 1 -34
v 20 1 -34
v 15 1 -36
v 20 1 -36
v -20 1 -48
v -12 1 -48
v 12 1 -48
v 20 1 -48
v -12 1 -56
v 12 1 -56
v -32 2 56
v -28 2 56
v -27 2 56
v -18 2 56
v -17 2 56
v -8 2 56
v -7 2 56
v 2 2 56
v 3 2 56
v 12 2 56
v 13 2 56
v 22 2 56
v 23 2 56
v 32 2 56
v -32 2 49
v -28 2 49
v -27 2 49
v -18 2 49
v -17 2 49
v -8 2 49
v -7 2 49
v 2 2 49
v 3 2 49
v 12 2 49
v 13 2 49
v 22 2 49
v 23 2 49
v 32 2 49
v -32 2 48
v 32 2 48
v -20 2 -16
v 20 2 -16
v -20 2 -17
v -18 2 -17
v -17 2 -17
v -8 2 -17
v -7 2 -17
v 2 2 -17
v 3 2 -17
v 12 2 -17
v 13 2 -17
v 20 2 -17
v -20 2 -24
v -18 2 -24
v -17 2 -24
v -8 2 -24
v -7 2 -24
v 2 2 -24
v 3 2 -24
v 12 2 -24
v 13 2 -24
v 20 2 -24
v -20 2 -48
v -12 2 -48
v 12 2 -48
v 20 2 -48
v -20 2 -55
v -19 2 -55
v 19 2 -55
v 20 2 -55
v -20 2 -56
v -19 2 -56
v -12 2 -56
v 12 2 -56
v 19 2 -56
v 20 2 -56

# faces
f 3/1/1 2/1/1 1/1/1
f 4/1/1 2/1/1 3/1/1
f 5/1/1 3/1/1 1/1/1
f 6/2/1 4/2/1 3/2/1
f 6/1/1 3/1/1 5/1/1
f 7/2/1 4/2/1 6/2/1
f 11/1/1 9/1/1 8/1/1
f 12/3/1 10/3/1 9/3/1
f 12/1/1 9/1/1 11/1/1
f 13/3/1 10/3/1 12/3/1
f 14/3/1 10/3/1 13/3/1
f 15/3/1 10/3/1 14/3/1
f 16/3/1 10/3/1 15/3/1
f 17/2/1 12/2/1 11/2/1
f 18/1/1 13/1/1 12/1/1
f 18/2/1 12/2/1 17/2/1
f 19/1/1 13/1/1 18/1/1
f 20/1/1 15/1/1 14/1/1
f 21/2/1 16/2/1 15/2/1
f 21/1/1 15/1/1 20/1/1
f 22/2/1 16/2/1 21/2/1
f 25/1/1 24/1/1 23/1/1
f 26/1/1 24/1/1 25/1/1
f 27/1/2 28/1/2 29/1/2
f 29/1/2 28/1/2 30/1/2
f 31/1/2 32/1/2 36/1/2
f 32/3/2 33/3/2 37/3/2
f 36/1/2 32/1/2 37/1/2
f 37/3/2 33/3/2 38/3/2
f 33/4/2 34/4/2 39/4/2
f 38/3/2 33/3/2 39/3/2
f 34/3/2 35/3/2 40/3/2
f 39/4/2 34/4/2 40/4/2
f 40/3/2 35/3/2 41/3/2
f 41/3/2 35/3/2 42/3/2
f 42/3/2 35/3/2 43/3/2
f 36/2/2 37/2/2 44/2/2
f 37/1/2 38/1/2 45/1/2
f 44/2/2 37/2/2 45/2/2
f 45/1/2 38/1/2 46/1/2
f 41/1/2 42/1/2 47/1/2
f 42/2/2 43/2/2 48/2/2
f 47/1/2 42/1/2 48/1/2
f 48/2/2 43/2/2 49/2/2
f 50/1/2 51/1/2 52/1/2
f 52/1/2 51/1/2 53/1/2
f 50/1/2 52/1/2 54/1/2
f 52/2/2 53/2/2 55/2/2
f 54/1/2 52/1/2 55/1/2
f 55/2/2 53/2/2 56/2/2
f 59/1/3 58/1/3 57/1/3
f 60/1/3 58/1/3 59/1/3
f 61/2/3 60/2/3 59/2/3
f 62/2/3 60/2/3 61/2/3
f 63/1/3 62/1/3 61/1/3
f 64/1/3 62/1/3 63/1/3
f 65/2/3 64/2/3 63/2/3
f 66/2/3 64/2/3 65/2/3
f 67/1/3 66/1/3 65/1/3
f 68/1/3 66/1/3 67/1/3
f 69/2/3 68/2/3 67/2/3
f 70/2/3 68/2/3 69/2/3
f 71/1/3 70/1/3 69/1/3
f 72/1/3 70/1/3 71/1/3
f 73/2/3 72/2/3 71/2/3
f 74/2/3 72/2/3 73/2/3
f 75/1/3 74/1/3 73/1/3
f 76/1/3 74/1/3 75/1/3
f 77/2/3 76/2/3 75/2/3
f 78/2/3 76/2/3 77/2/3
f 79/1/3 78/1/3 77/1/3
f 80/1/3 78/1/3 79/1/3
f 81/2/3 80/2/3 79/2/3
f 82/2/3 80/2/3 81/2/3
f 83/1/3 82/1/3 81/1/3
f 84/1/3 82/1/3 83/1/3
f 88/1/3 86/1/3 85/1/3
f 89/2/3 87/2/3 86/2/3
f 89/1/3 86/1/3 88/1/3
f 90/2/3 87/2/3 89/2/3
f 93/1/3 92/1/3 91/1/3
f 94/1/3 92/1/3 93/1/3
f 97/1/3 96/1/3 95/1/3
f 98/1/3 96/1/3 97/1/3
f 99/1/4 100/1/4 102/1/4
f 100/2/4 101/2/4 103/2/4
f 102/1/4 100/1/4 103/1/4
f 103/2/4 101/2/4 104/2/4
f 105/1/4 106/1/4 107/1/4
f 107/1/4 106/1/4 108/1/4
f 107/2/4 108/2/4 109/2/4
f 109/2/4 108/2/4 110/2/4
f 109/1/4 110/1/4 111/1/4
f 111/1/4 110/1/4 112/1/4
f 111/2/4 112/2/4 113/2/4
f 113/2/4 112/2/4 114/2/4
f 113/1/4 114/1/4 115/1/4
f 115/1/4 114/1/4 116/1/4
f 115/2/4 116/2/4 117/2/4
f 117/2/4 116/2/4 118/2/4
f 117/1/4 118/1/4 119/1/4
f 119/1/4 118/1/4 120/1/4
f 119/2/4 120/2/4 121/2/4
f 121/2/4 120/2/4 122/2/4
f 121/1/4 122/1/4 123/1/4
f 123/1/4 122/1/4 124/1/4
f 125/3/4 126/3/4 128/3/4
f 126/2/4 127/2/4 128/2/4
f 128/2/4 127/2/4 129/2/4
f 125/3/4 128/3/4 130/3/4
f 128/1/4 129/1/4 130/1/4
f 130/1/4 129/1/4 131/1/4
f 125/3/4 130/3/4 132/3/4
f 125/3/4 132/3/4 134/3/4
f 132/1/4 133/1/4 134/1/4
f 134/1/4 133/1/4 135/1/4
f 125/3/4 134/3/4 136/3/4
f 134/2/4 135/2/4 137/2/4
f 136/3/4 134/3/4 137/3/4
f 137/2/4 135/2/4 138/2/4
f 153/1/5 140/1/5 139/1/5
f 154/2/5 141/2/5 140/2/5
f 154/1/5 140/1/5 153/1/5
f 155/1/5 142/1/5 141/1/5
f 155/2/5 141/2/5 154/2/5
f 156/2/5 143/2/5 142/2/5
f 156/1/5 142/1/5 155/1/5
f 157/1/5 144/1/5 143/1/5
f 157/2/5 143/2/5 156/2/5
f 158/2/5 145/2/5 144/2/5
f 158/1/5 144/1/5 157/1/5
f 159/1/5 146/1/5 145/1/5
f 159/2/5 145/2/5 158/2/5
f 160/2/5 147/2/5 146/2/5
f 160/1/5 146/1/5 159/1/5
f 161/1/5 148/1/5 147/1/5
f 161/2/5 147/2/5 160/2/5
f 162/2/5 149/2/5 148/2/5
f 162/1/5 148/1/5 161/1/5
f 163/1/5 150/1/5 149/1/5
f 163/2/5 149/2/5 162/2/5
f 164/2/5 151/2/5 150/2/5
f 164/1/5 150/1/5 163/1/5
f 165/1/5 152/1/5 151/1/5
f 165/2/5 151/2/5 164/2/5
f 166/1/5 152/1/5 165/1/5
f 167/3/5 164/3/5 163/3/5
f 167/1/5 153/1/5 139/1/5
f 167/3/5 166/3/5 165/3/5
f 167/3/5 165/3/5 164/3/5
f 167/3/5 163/3/5 162/3/5
f 167/3/5 162/3/5 161/3/5
f 167/3/5 161/3/5 160/3/5
f 167/3/5 160/3/5 159/3/5
f 167/3/5 159/3/5 158/3/5
f 167/3/5 158/3/5 157/3/5
f 167/3/5 157/3/5 156/3/5
f 167/3/5 156/3/5 155/3/5
f 167/3/5 155/3/5 154/3/5
f 167/3/5 154/3/5 153/3/5
f 168/1/5 152/1/5 166/1/5
f 168/3/5 166/3/5 167/3/5
f 169/1/5 167/1/5 139/1/5
f 169/1/5 168/1/5 167/1/5
f 170/1/5 152/1/5 168/1/5
f 170/1/5 168/1/5 169/1/5
f 173/1/5 172/1/5 171/1/5
f 174/1/5 172/1/5 173/1/5
f 175/3/5 174/3/5 173/3/5
f 176/3/5 174/3/5 175/3/5
f 177/3/5 175/3/5 173/3/5
f 177/4/5 176/4/5 175/4/5
f 178/4/5 176/4/5 177/4/5
f 179/3/5 177/3/5 173/3/5
f 179/3/5 178/3/5 177/3/5
f 180/3/5 178/3/5 179/3/5
f 181/3/6 182/3/6 191/3/6
f 189/3/6 190/3/6 191/3/6
f 188/3/6 189/3/6 191/3/6
f 187/3/6 188/3/6 191/3/6
f 186/3/6 187/3/6 191/3/6
f 185/3/6 186/3/6 191/3/6
f 184/3/6 185/3/6 191/3/6
f 183/3/6 184/3/6 191/3/6
f 182/3/6 183/3/6 191/3/6
f 191/3/6 190/3/6 192/3/6
f 181/3/6 191/3/6 193/3/6
f 191/4/6 192/4/6 193/4/6
f 193/4/6 192/4/6 194/4/6
f 181/3/6 193/3/6 195/3/6
f 193/3/6 194/3/6 195/3/6
f 195/3/6 194/3/6 196/3/6
f 196/3/6 194/3/6 197/3/6
f 197/3/6 194/3/6 198/3/6
f 196/3/6 197/3/6 199/3/6
f 199/3/6 197/3/6 200/3/6
f 201/1/6 202/1/6 215/1/6
f 202/2/6 203/2/6 216/2/6
f 215/1/6 202/1/6 216/1/6
f 203/1/6 204/1/6 217/1/6
f 216/2/6 203/2/6 217/2/6
f 204/2/6 205/2/6 218/2/6
f 217/1/6 204/1/6 218/1/6
f 205/1/6 206/1/6 219/1/6
f 218/2/6 205/2/6 219/2/6
f 206/2/6 207/2/6 220/2/6
f 219/1/6 206/1/6 220/1/6
f 207/1/6 208/1/6 221/1/6
f 220/2/6 207/2/6 221/2/6
f 208/2/6 209/2/6 222/2/6
f 221/1/6 208/1/6 222/1/6
f 209/1/6 210/1/6 223/1/6
f 222/2/6 209/2/6 223/2/6
f 210/2/6 211/2/6 224/2/6
f 223/1/6 210/1/6 224/1/6
f 211/1/6 212/1/6 225/1/6
f 224/2/6 211/2/6 225/2/6
f 212/2/6 213/2/6 226/2/6
f 225/1/6 212/1/6 226/1/6
f 213/1/6 214/1/6 227/1/6
f 226/2/6 213/2/6 227/2/6
f 227/1/6 214/1/6 228/1/6
f 225/2/6 226/2/6 229/2/6
f 215/2/6 216/2/6 229/2/6
f 227/2/6 228/2/6 229/2/6
f 226/2/6 227/2/6 229/2/6
f 224/2/6 225/2/6 229/2/6
f 223/2/6 224/2/6 229/2/6
f 222/2/6 223/2/6 229/2/6
f 221/2/6 222/2/6 229/2/6
f 220/2/6 221/2/6 229/2/6
f 219/2/6 220/2/6 229/2/6
f 218/2/6 219/2/6 229/2/6
f 217/2/6 218/2/6 229/2/6
f 216/2/6 217/2/6 229/2/6
f 229/2/6 228/2/6 230/2/6
f 231/2/6 232/2/6 233/2/6
f 233/2/6 232/2/6 234/2/6
f 234/2/6 232/2/6 235/2/6
f 235/2/6 232/2/6 236/2/6
f 236/2/6 232/2/6 237/2/6
f 237/2/6 232/2/6 238/2/6
f 238/2/6 232/2/6 239/2/6
f 239/2/6 232/2/6 240/2/6
f 240/2/6 232/2/6 241/2/6
f 241/2/6 232/2/6 242/2/6
f 233/1/6 234/1/6 243/1/6
f 234/2/6 235/2/6 244/2/6
f 243/1/6 234/1/6 244/1/6
f 235/1/6 236/1/6 245/1/6
f 244/2/6 235/2/6 245/2/6
f 236/2/6 237/2/6 246/2/6
f 245/1/6 236/1/6 246/1/6
f 237/1/6 238/1/6 247/1/6
f 246/2/6 237/2/6 247/2/6
f 238/2/6 239/2/6 248/2/6
f 247/1/6 238/1/6 248/1/6
f 239/1/6 240/1/6 249/1/6
f 248/2/6 239/2/6 249/2/6
f 240/2/6 241/2/6 250/2/6
f 249/1/6 240/1/6 250/1/6
f 241/1/6 242/1/6 251/1/6
f 250/2/6 241/2/6 251/2/6
f 251/1/6 242/1/6 252/1/6
f 253/1/6 254/1/6 257/1/6
f 257/1/6 254/1/6 258/1/6
f 255/1/6 256/1/6 259/1/6
f 259/1/6 256/1/6 260/1/6
f 257/2/6 258/2/6 261/2/6
f 258/1/6 254/1/6 262/1/6
f 261/2/6 258/2/6 262/2/6
f 262/1/6 254/1/6 263/1/6
f 255/1/6 259/1/6 264/1/6
f 259/2/6 260/2/6 265/2/6
f 264/1/6 259/1/6 265/1/6
f 265/2/6 260/2/6 266/2/6
