# MagicaVoxel @ Ephtracy

# group
g store_fill-1

# material
mtllib store_fill-1.mtl
usemtl palette

# normals
vn -1 0 0
vn 1 0 0
vn 0 0 1
vn 0 0 -1
vn 0 -1 0
vn 0 1 0

# texcoords
vt 0.0292969 0.5
vt 0.0332031 0.5
vt 0.0527344 0.5
vt 0.0644531 0.5

# verts
v -52 0 52
v -52 0 -52
v -52 1 52
v -52 1 -52
v -52 2 52
v -52 2 -52
v -20 1 52
v -20 1 43
v -20 1 42
v -20 1 33
v -20 1 32
v -20 1 23
v -20 1 22
v -20 1 13
v -20 1 12
v -20 1 3
v -20 1 2
v -20 1 -7
v -20 1 -8
v -20 1 -20
v -20 2 52
v -20 2 43
v -20 2 42
v -20 2 33
v -20 2 32
v -20 2 23
v -20 2 22
v -20 2 13
v -20 2 12
v -20 2 3
v -20 2 2
v -20 2 -7
v -20 2 -8
v -20 2 -20
v -44 1 52
v -44 1 43
v -44 1 42
v -44 1 33
v -44 1 32
v -44 1 23
v -44 1 22
v -44 1 13
v -44 1 12
v -44 1 3
v -44 1 2
v -44 1 -7
v -44 1 -8
v -44 1 -22
v -44 1 -23
v -44 1 -32
v -44 1 -33
v -44 1 -42
v -44 1 -43
v -44 1 -44
v -44 2 52
v -44 2 43
v -44 2 42
v -44 2 33
v -44 2 32
v -44 2 23
v -44 2 22
v -44 2 13
v -44 2 12
v -44 2 3
v -44 2 2
v -44 2 -7
v -44 2 -8
v -44 2 -22
v -44 2 -23
v -44 2 -32
v -44 2 -33
v -44 2 -42
v -44 2 -43
v -44 2 -44
v -12 0 52
v -12 0 -12
v -12 1 52
v -12 1 -12
v -12 2 52
v -12 2 -12
v 52 0 -12
v 52 0 -20
v 52 0 -30
v 52 0 -32
v 52 0 -44
v 52 0 -52
v 52 1 -12
v 52 1 -13
v 52 1 -20
v 52 1 -30
v 52 1 -32
v 52 1 -44
v 52 1 -51
v 52 1 -52
v 52 2 -12
v 52 2 -13
v 52 2 -20
v 52 2 -44
v 52 2 -51
v 52 2 -52
v -52 0 52
v -52 1 52
v -52 2 52
v -51 1 52
v -51 2 52
v -44 0 52
v -44 1 52
v -44 2 52
v -34 0 52
v -34 1 52
v -32 0 52
v -32 1 52
v -20 0 52
v -20 1 52
v -20 2 52
v -13 1 52
v -13 2 52
v -12 0 52
v -12 1 52
v -12 2 52
v -12 0 -12
v -12 1 -12
v -12 2 -12
v 52 0 -12
v 52 1 -12
v 52 2 -12
v -44 1 -44
v -44 2 -44
v -43 1 -44
v -43 2 -44
v -42 1 -44
v -42 2 -44
v -33 1 -44
v -33 2 -44
v -32 1 -44
v -32 2 -44
v -23 1 -44
v -23 2 -44
v -22 1 -44
v -22 2 -44
v -8 1 -44
v -8 2 -44
v -7 1 -44
v -7 2 -44
v 2 1 -44
v 2 2 -44
v 3 1 -44
v 3 2 -44
v 12 1 -44
v 12 2 -44
v 13 1 -44
v 13 2 -44
v 22 1 -44
v 22 2 -44
v 23 1 -44
v 23 2 -44
v 32 1 -44
v 32 2 -44
v 33 1 -44
v 33 2 -44
v 42 1 -44
v 42 2 -44
v 43 1 -44
v 43 2 -44
v 52 1 -44
v 52 2 -44
v -20 1 -20
v -20 2 -20
v -8 1 -20
v -8 2 -20
v -7 1 -20
v -7 2 -20
v 2 1 -20
v 2 2 -20
v 3 1 -20
v 3 2 -20
v 12 1 -20
v 12 2 -20
v 13 1 -20
v 13 2 -20
v 22 1 -20
v 22 2 -20
v 23 1 -20
v 23 2 -20
v 32 1 -20
v 32 2 -20
v 33 1 -20
v 33 2 -20
v 42 1 -20
v 42 2 -20
v 43 1 -20
v 43 2 -20
v 52 1 -20
v 52 2 -20
v -52 0 -52
v -52 1 -52
v -52 2 -52
v 52 0 -52
v 52 1 -52
v 52 2 -52
v -52 0 52
v -44 0 52
v -34 0 52
v -32 0 52
v -20 0 52
v -12 0 52
v -51 0 51
v -44 0 51
v -20 0 51
v -13 0 51
v -34 0 41
v -32 0 41
v -34 0 32
v -32 0 32
v -34 0 21
v -32 0 21
v -34 0 12
v -32 0 12
v -34 0 1
v -32 0 1
v -34 0 -8
v -32 0 -8
v -51 0 -11
v -44 0 -11
v -20 0 -11
v -13 0 -11
v -51 0 -12
v -44 0 -12
v -34 0 -12
v -32 0 -12
v -20 0 -12
v -12 0 -12
v 52 0 -12
v -11 0 -13
v 51 0 -13
v -12 0 -20
v -11 0 -20
v 51 0 -20
v 52 0 -20
v -12 0 -30
v -8 0 -30
v 1 0 -30
v 12 0 -30
v 21 0 -30
v 32 0 -30
v 41 0 -30
v 52 0 -30
v -12 0 -32
v -8 0 -32
v 1 0 -32
v 12 0 -32
v 21 0 -32
v 32 0 -32
v 41 0 -32
v 52 0 -32
v -12 0 -44
v -11 0 -44
v 51 0 -44
v 52 0 -44
v -51 0 -51
v -12 0 -51
v -11 0 -51
v 51 0 -51
v -52 0 -52
v 52 0 -52
v -44 1 52
v -34 1 52
v -32 1 52
v -20 1 52
v -44 1 43
v -20 1 43
v -44 1 42
v -20 1 42
v -34 1 41
v -32 1 41
v -44 1 33
v -20 1 33
v -44 1 32
v -34 1 32
v -32 1 32
v -20 1 32
v -44 1 23
v -20 1 23
v -44 1 22
v -20 1 22
v -34 1 21
v -32 1 21
v -44 1 13
v -20 1 13
v -44 1 12
v -34 1 12
v -32 1 12
v -20 1 12
v -44 1 3
v -20 1 3
v -44 1 2
v -20 1 2
v -34 1 1
v -32 1 1
v -44 1 -7
v -20 1 -7
v -44 1 -8
v -34 1 -8
v -32 1 -8
v -20 1 -8
v -34 1 -12
v -32 1 -12
v -20 1 -20
v -8 1 -20
v -7 1 -20
v 2 1 -20
v 3 1 -20
v 12 1 -20
v 13 1 -20
v 22 1 -20
v 23 1 -20
v 32 1 -20
v 33 1 -20
v 42 1 -20
v 43 1 -20
v 52 1 -20
v -44 1 -22
v -44 1 -23
v -12 1 -30
v -8 1 -30
v 1 1 -30
v 12 1 -30
v 21 1 -30
v 32 1 -30
v 41 1 -30
v 52 1 -30
v -44 1 -32
v -12 1 -32
v -8 1 -32
v 1 1 -32
v 12 1 -32
v 21 1 -32
v 32 1 -32
v 41 1 -32
v 52 1 -32
v -44 1 -33
v -44 1 -42
v -44 1 -43
v -44 1 -44
v -43 1 -44
v -42 1 -44
v -33 1 -44
v -32 1 -44
v -23 1 -44
v -22 1 -44
v -8 1 -44
v -7 1 -44
v 2 1 -44
v 3 1 -44
v 12 1 -44
v 13 1 -44
v 22 1 -44
v 23 1 -44
v 32 1 -44
v 33 1 -44
v 42 1 -44
v 43 1 -44
v 52 1 -44
v -52 2 52
v -51 2 52
v -44 2 52
v -20 2 52
v -13 2 52
v -12 2 52
v -51 2 43
v -44 2 43
v -20 2 43
v -13 2 43
v -51 2 42
v -44 2 42
v -20 2 42
v -13 2 42
v -51 2 33
v -44 2 33
v -20 2 33
v -13 2 33
v -51 2 32
v -44 2 32
v -20 2 32
v -13 2 32
v -51 2 23
v -44 2 23
v -20 2 23
v -13 2 23
v -51 2 22
v -44 2 22
v -20 2 22
v -13 2 22
v -51 2 13
v -44 2 13
v -20 2 13
v -13 2 13
v -51 2 12
v -44 2 12
v -20 2 12
v -13 2 12
v -51 2 3
v -44 2 3
v -20 2 3
v -13 2 3
v -51 2 2
v -44 2 2
v -20 2 2
v -13 2 2
v -51 2 -7
v -44 2 -7
v -20 2 -7
v -13 2 -7
v -51 2 -8
v -44 2 -8
v -20 2 -8
v -13 2 -8
v -12 2 -12
v 52 2 -12
v -13 2 -13
v -8 2 -13
v -7 2 -13
v 2 2 -13
v 3 2 -13
v 12 2 -13
v 13 2 -13
v 22 2 -13
v 23 2 -13
v 32 2 -13
v 33 2 -13
v 42 2 -13
v 43 2 -13
v 52 2 -13
v -20 2 -20
v -8 2 -20
v -7 2 -20
v 2 2 -20
v 3 2 -20
v 12 2 -20
v 13 2 -20
v 22 2 -20
v 23 2 -20
v 32 2 -20
v 33 2 -20
v 42 2 -20
v 43 2 -20
v 52 2 -20
v -51 2 -22
v -44 2 -22
v -51 2 -23
v -44 2 -23
v -51 2 -32
v -44 2 -32
v -51 2 -33
v -44 2 -33
v -51 2 -42
v -44 2 -42
v -51 2 -43
v -44 2 -43
v -44 2 -44
v -43 2 -44
v -42 2 -44
v -33 2 -44
v -32 2 -44
v -23 2 -44
v -22 2 -44
v -8 2 -44
v -7 2 -44
v 2 2 -44
v 3 2 -44
v 12 2 -44
v 13 2 -44
v 22 2 -44
v 23 2 -44
v 32 2 -44
v 33 2 -44
v 42 2 -44
v 43 2 -44
v 52 2 -44
v -51 2 -51
v -43 2 -51
v -42 2 -51
v -33 2 -51
v -32 2 -51
v -23 2 -51
v -22 2 -51
v -8 2 -51
v -7 2 -51
v 2 2 -51
v 3 2 -51
v 12 2 -51
v 13 2 -51
v 22 2 -51
v 23 2 -51
v 32 2 -51
v 33 2 -51
v 42 2 -51
v 43 2 -51
v 52 2 -51
v -52 2 -52
v 52 2 -52

# faces
f 3/1/1 2/1/1 1/1/1
f 4/1/1 2/1/1 3/1/1
f 5/2/1 4/2/1 3/2/1
f 6/2/1 4/2/1 5/2/1
f 21/1/1 8/1/1 7/1/1
f 22/2/1 9/2/1 8/2/1
f 22/1/1 8/1/1 21/1/1
f 23/1/1 10/1/1 9/1/1
f 23/2/1 9/2/1 22/2/1
f 24/2/1 11/2/1 10/2/1
f 24/1/1 10/1/1 23/1/1
f 25/1/1 12/1/1 11/1/1
f 25/2/1 11/2/1 24/2/1
f 26/2/1 13/2/1 12/2/1
f 26/1/1 12/1/1 25/1/1
f 27/1/1 14/1/1 13/1/1
f 27/2/1 13/2/1 26/2/1
f 28/2/1 15/2/1 14/2/1
f 28/1/1 14/1/1 27/1/1
f 29/1/1 16/1/1 15/1/1
f 29/2/1 15/2/1 28/2/1
f 30/2/1 17/2/1 16/2/1
f 30/1/1 16/1/1 29/1/1
f 31/1/1 18/1/1 17/1/1
f 31/2/1 17/2/1 30/2/1
f 32/2/1 19/2/1 18/2/1
f 32/1/1 18/1/1 31/1/1
f 33/1/1 20/1/1 19/1/1
f 33/2/1 19/2/1 32/2/1
f 34/1/1 20/1/1 33/1/1
f 35/1/2 36/1/2 55/1/2
f 36/2/2 37/2/2 56/2/2
f 55/1/2 36/1/2 56/1/2
f 37/1/2 38/1/2 57/1/2
f 56/2/2 37/2/2 57/2/2
f 38/2/2 39/2/2 58/2/2
f 57/1/2 38/1/2 58/1/2
f 39/1/2 40/1/2 59/1/2
f 58/2/2 39/2/2 59/2/2
f 40/2/2 41/2/2 60/2/2
f 59/1/2 40/1/2 60/1/2
f 41/1/2 42/1/2 61/1/2
f 60/2/2 41/2/2 61/2/2
f 42/2/2 43/2/2 62/2/2
f 61/1/2 42/1/2 62/1/2
f 43/1/2 44/1/2 63/1/2
f 62/2/2 43/2/2 63/2/2
f 44/2/2 45/2/2 64/2/2
f 63/1/2 44/1/2 64/1/2
f 45/1/2 46/1/2 65/1/2
f 64/2/2 45/2/2 65/2/2
f 46/2/2 47/2/2 66/2/2
f 65/1/2 46/1/2 66/1/2
f 47/1/2 48/1/2 67/1/2
f 66/2/2 47/2/2 67/2/2
f 48/2/2 49/2/2 68/2/2
f 67/1/2 48/1/2 68/1/2
f 49/1/2 50/1/2 69/1/2
f 68/2/2 49/2/2 69/2/2
f 50/2/2 51/2/2 70/2/2
f 69/1/2 50/1/2 70/1/2
f 51/1/2 52/1/2 71/1/2
f 70/2/2 51/2/2 71/2/2
f 52/2/2 53/2/2 72/2/2
f 71/1/2 52/1/2 72/1/2
f 53/1/2 54/1/2 73/1/2
f 72/2/2 53/2/2 73/2/2
f 73/1/2 54/1/2 74/1/2
f 75/1/2 76/1/2 77/1/2
f 77/1/2 76/1/2 78/1/2
f 77/2/2 78/2/2 79/2/2
f 79/2/2 78/2/2 80/2/2
f 81/1/2 82/1/2 87/1/2
f 87/1/2 82/1/2 88/1/2
f 82/3/2 83/3/2 89/3/2
f 88/1/2 82/1/2 89/1/2
f 83/4/2 84/4/2 90/4/2
f 89/3/2 83/3/2 90/3/2
f 84/3/2 85/3/2 91/3/2
f 90/4/2 84/4/2 91/4/2
f 85/1/2 86/1/2 92/1/2
f 91/3/2 85/3/2 92/3/2
f 92/1/2 86/1/2 93/1/2
f 93/1/2 86/1/2 94/1/2
f 87/2/2 88/2/2 95/2/2
f 88/1/2 89/1/2 96/1/2
f 95/2/2 88/2/2 96/2/2
f 96/1/2 89/1/2 97/1/2
f 92/1/2 93/1/2 98/1/2
f 93/2/2 94/2/2 99/2/2
f 98/1/2 93/1/2 99/1/2
f 99/2/2 94/2/2 100/2/2
f 104/1/3 102/1/3 101/1/3
f 104/2/3 103/2/3 102/2/3
f 105/2/3 103/2/3 104/2/3
f 106/1/3 104/1/3 101/1/3
f 106/1/3 105/1/3 104/1/3
f 107/1/3 105/1/3 106/1/3
f 108/1/3 105/1/3 107/1/3
f 109/3/3 107/3/3 106/3/3
f 110/3/3 107/3/3 109/3/3
f 111/4/3 110/4/3 109/4/3
f 112/4/3 110/4/3 111/4/3
f 113/3/3 112/3/3 111/3/3
f 114/3/3 112/3/3 113/3/3
f 116/1/3 114/1/3 113/1/3
f 116/1/3 115/1/3 114/1/3
f 117/1/3 115/1/3 116/1/3
f 118/1/3 116/1/3 113/1/3
f 119/2/3 117/2/3 116/2/3
f 119/1/3 116/1/3 118/1/3
f 120/2/3 117/2/3 119/2/3
f 124/1/3 122/1/3 121/1/3
f 125/2/3 123/2/3 122/2/3
f 125/1/3 122/1/3 124/1/3
f 126/2/3 123/2/3 125/2/3
f 129/1/3 128/1/3 127/1/3
f 130/1/3 128/1/3 129/1/3
f 131/2/3 130/2/3 129/2/3
f 132/2/3 130/2/3 131/2/3
f 133/1/3 132/1/3 131/1/3
f 134/1/3 132/1/3 133/1/3
f 135/2/3 134/2/3 133/2/3
f 136/2/3 134/2/3 135/2/3
f 137/1/3 136/1/3 135/1/3
f 138/1/3 136/1/3 137/1/3
f 139/2/3 138/2/3 137/2/3
f 140/2/3 138/2/3 139/2/3
f 141/1/3 140/1/3 139/1/3
f 142/1/3 140/1/3 141/1/3
f 143/2/3 142/2/3 141/2/3
f 144/2/3 142/2/3 143/2/3
f 145/1/3 144/1/3 143/1/3
f 146/1/3 144/1/3 145/1/3
f 147/2/3 146/2/3 145/2/3
f 148/2/3 146/2/3 147/2/3
f 149/1/3 148/1/3 147/1/3
f 150/1/3 148/1/3 149/1/3
f 151/2/3 150/2/3 149/2/3
f 152/2/3 150/2/3 151/2/3
f 153/1/3 152/1/3 151/1/3
f 154/1/3 152/1/3 153/1/3
f 155/2/3 154/2/3 153/2/3
f 156/2/3 154/2/3 155/2/3
f 157/1/3 156/1/3 155/1/3
f 158/1/3 156/1/3 157/1/3
f 159/2/3 158/2/3 157/2/3
f 160/2/3 158/2/3 159/2/3
f 161/1/3 160/1/3 159/1/3
f 162/1/3 160/1/3 161/1/3
f 163/2/3 162/2/3 161/2/3
f 164/2/3 162/2/3 163/2/3
f 165/1/3 164/1/3 163/1/3
f 166/1/3 164/1/3 165/1/3
f 167/1/4 168/1/4 169/1/4
f 169/1/4 168/1/4 170/1/4
f 169/2/4 170/2/4 171/2/4
f 171/2/4 170/2/4 172/2/4
f 171/1/4 172/1/4 173/1/4
f 173/1/4 172/1/4 174/1/4
f 173/2/4 174/2/4 175/2/4
f 175/2/4 174/2/4 176/2/4
f 175/1/4 176/1/4 177/1/4
f 177/1/4 176/1/4 178/1/4
f 177/2/4 178/2/4 179/2/4
f 179/2/4 178/2/4 180/2/4
f 179/1/4 180/1/4 181/1/4
f 181/1/4 180/1/4 182/1/4
f 181/2/4 182/2/4 183/2/4
f 183/2/4 182/2/4 184/2/4
f 183/1/4 184/1/4 185/1/4
f 185/1/4 184/1/4 186/1/4
f 185/2/4 186/2/4 187/2/4
f 187/2/4 186/2/4 188/2/4
f 187/1/4 188/1/4 189/1/4
f 189/1/4 188/1/4 190/1/4
f 189/2/4 190/2/4 191/2/4
f 191/2/4 190/2/4 192/2/4
f 191/1/4 192/1/4 193/1/4
f 193/1/4 192/1/4 194/1/4
f 195/1/4 196/1/4 198/1/4
f 196/2/4 197/2/4 199/2/4
f 198/1/4 196/1/4 199/1/4
f 199/2/4 197/2/4 200/2/4
f 207/1/5 202/1/5 201/1/5
f 208/3/5 203/3/5 202/3/5
f 208/1/5 202/1/5 207/1/5
f 209/1/5 206/1/5 205/1/5
f 209/3/5 205/3/5 204/3/5
f 210/1/5 206/1/5 209/1/5
f 211/3/5 203/3/5 208/3/5
f 211/4/5 204/4/5 203/4/5
f 211/3/5 208/3/5 207/3/5
f 212/3/5 210/3/5 209/3/5
f 212/4/5 204/4/5 211/4/5
f 212/3/5 209/3/5 204/3/5
f 213/3/5 211/3/5 207/3/5
f 213/3/5 212/3/5 211/3/5
f 214/3/5 210/3/5 212/3/5
f 214/3/5 212/3/5 213/3/5
f 215/3/5 213/3/5 207/3/5
f 215/4/5 214/4/5 213/4/5
f 216/3/5 210/3/5 214/3/5
f 216/4/5 214/4/5 215/4/5
f 217/3/5 215/3/5 207/3/5
f 217/3/5 216/3/5 215/3/5
f 218/3/5 210/3/5 216/3/5
f 218/3/5 216/3/5 217/3/5
f 219/3/5 217/3/5 207/3/5
f 219/4/5 218/4/5 217/4/5
f 220/3/5 210/3/5 218/3/5
f 220/4/5 218/4/5 219/4/5
f 221/3/5 219/3/5 207/3/5
f 221/3/5 220/3/5 219/3/5
f 222/3/5 210/3/5 220/3/5
f 222/3/5 220/3/5 221/3/5
f 223/1/5 207/1/5 201/1/5
f 223/3/5 221/3/5 207/3/5
f 224/3/5 221/3/5 223/3/5
f 225/3/5 210/3/5 222/3/5
f 226/1/5 206/1/5 210/1/5
f 226/3/5 210/3/5 225/3/5
f 227/1/5 223/1/5 201/1/5
f 227/1/5 224/1/5 223/1/5
f 228/3/5 221/3/5 224/3/5
f 228/1/5 224/1/5 227/1/5
f 229/4/5 222/4/5 221/4/5
f 229/3/5 221/3/5 228/3/5
f 230/3/5 225/3/5 222/3/5
f 230/4/5 222/4/5 229/4/5
f 231/1/5 226/1/5 225/1/5
f 231/3/5 225/3/5 230/3/5
f 232/1/5 206/1/5 226/1/5
f 232/1/5 226/1/5 231/1/5
f 234/1/5 233/1/5 232/1/5
f 235/1/5 233/1/5 234/1/5
f 236/3/5 229/3/5 228/3/5
f 236/3/5 228/3/5 227/3/5
f 236/3/5 231/3/5 230/3/5
f 236/1/5 234/1/5 232/1/5
f 236/3/5 232/3/5 231/3/5
f 236/3/5 230/3/5 229/3/5
f 237/3/5 235/3/5 234/3/5
f 237/1/5 234/1/5 236/1/5
f 238/1/5 233/1/5 235/1/5
f 238/3/5 235/3/5 237/3/5
f 239/1/5 233/1/5 238/1/5
f 240/3/5 237/3/5 236/3/5
f 240/3/5 236/3/5 227/3/5
f 240/3/5 239/3/5 238/3/5
f 240/3/5 238/3/5 237/3/5
f 241/3/5 239/3/5 240/3/5
f 242/3/5 239/3/5 241/3/5
f 243/3/5 239/3/5 242/3/5
f 244/3/5 239/3/5 243/3/5
f 245/3/5 239/3/5 244/3/5
f 246/3/5 239/3/5 245/3/5
f 247/3/5 239/3/5 246/3/5
f 248/3/5 240/3/5 227/3/5
f 248/4/5 241/4/5 240/4/5
f 249/3/5 242/3/5 241/3/5
f 249/4/5 241/4/5 248/4/5
f 250/4/5 243/4/5 242/4/5
f 250/3/5 242/3/5 249/3/5
f 251/3/5 244/3/5 243/3/5
f 251/4/5 243/4/5 250/4/5
f 252/4/5 245/4/5 244/4/5
f 252/3/5 244/3/5 251/3/5
f 253/3/5 246/3/5 245/3/5
f 253/4/5 245/4/5 252/4/5
f 254/4/5 247/4/5 246/4/5
f 254/3/5 246/3/5 253/3/5
f 255/4/5 247/4/5 254/4/5
f 256/3/5 253/3/5 252/3/5
f 256/3/5 248/3/5 227/3/5
f 256/3/5 255/3/5 254/3/5
f 256/3/5 254/3/5 253/3/5
f 256/3/5 252/3/5 251/3/5
f 256/3/5 251/3/5 250/3/5
f 256/3/5 250/3/5 249/3/5
f 256/3/5 249/3/5 248/3/5
f 257/3/5 255/3/5 256/3/5
f 258/3/5 255/3/5 257/3/5
f 259/3/5 255/3/5 258/3/5
f 260/1/5 227/1/5 201/1/5
f 260/3/5 256/3/5 227/3/5
f 261/1/5 257/1/5 256/1/5
f 261/3/5 256/3/5 260/3/5
f 262/3/5 258/3/5 257/3/5
f 262/1/5 257/1/5 261/1/5
f 263/1/5 259/1/5 258/1/5
f 263/3/5 258/3/5 262/3/5
f 264/1/5 262/1/5 261/1/5
f 264/1/5 260/1/5 201/1/5
f 264/1/5 263/1/5 262/1/5
f 264/1/5 261/1/5 260/1/5
f 265/1/5 259/1/5 263/1/5
f 265/1/5 263/1/5 264/1/5
f 266/3/6 267/3/6 270/3/6
f 268/3/6 269/3/6 271/3/6
f 270/3/6 267/3/6 272/3/6
f 268/3/6 271/3/6 273/3/6
f 267/4/6 268/4/6 274/4/6
f 272/3/6 267/3/6 274/3/6
f 268/3/6 273/3/6 275/3/6
f 274/4/6 268/4/6 275/4/6
f 272/3/6 274/3/6 276/3/6
f 274/3/6 275/3/6 276/3/6
f 275/3/6 273/3/6 277/3/6
f 276/3/6 275/3/6 277/3/6
f 276/3/6 277/3/6 278/3/6
f 278/3/6 277/3/6 279/3/6
f 279/3/6 277/3/6 280/3/6
f 280/3/6 277/3/6 281/3/6
f 278/3/6 279/3/6 282/3/6
f 280/3/6 281/3/6 283/3/6
f 282/3/6 279/3/6 284/3/6
f 280/3/6 283/3/6 285/3/6
f 279/4/6 280/4/6 286/4/6
f 284/3/6 279/3/6 286/3/6
f 280/3/6 285/3/6 287/3/6
f 286/4/6 280/4/6 287/4/6
f 284/3/6 286/3/6 288/3/6
f 286/3/6 287/3/6 288/3/6
f 287/3/6 285/3/6 289/3/6
f 288/3/6 287/3/6 289/3/6
f 288/3/6 289/3/6 290/3/6
f 290/3/6 289/3/6 291/3/6
f 291/3/6 289/3/6 292/3/6
f 292/3/6 289/3/6 293/3/6
f 290/3/6 291/3/6 294/3/6
f 292/3/6 293/3/6 295/3/6
f 294/3/6 291/3/6 296/3/6
f 292/3/6 295/3/6 297/3/6
f 291/4/6 292/4/6 298/4/6
f 296/3/6 291/3/6 298/3/6
f 292/3/6 297/3/6 299/3/6
f 298/4/6 292/4/6 299/4/6
f 296/3/6 298/3/6 300/3/6
f 298/3/6 299/3/6 300/3/6
f 299/3/6 297/3/6 301/3/6
f 300/3/6 299/3/6 301/3/6
f 300/3/6 301/3/6 302/3/6
f 302/3/6 301/3/6 303/3/6
f 303/3/6 301/3/6 304/3/6
f 304/3/6 301/3/6 305/3/6
f 302/3/6 303/3/6 306/3/6
f 303/4/6 304/4/6 306/4/6
f 304/3/6 305/3/6 307/3/6
f 306/4/6 304/4/6 307/4/6
f 306/3/6 307/3/6 308/3/6
f 307/3/6 305/3/6 308/3/6
f 306/3/6 308/3/6 322/3/6
f 320/3/6 321/3/6 322/3/6
f 319/3/6 320/3/6 322/3/6
f 318/3/6 319/3/6 322/3/6
f 317/3/6 318/3/6 322/3/6
f 316/3/6 317/3/6 322/3/6
f 315/3/6 316/3/6 322/3/6
f 314/3/6 315/3/6 322/3/6
f 313/3/6 314/3/6 322/3/6
f 312/3/6 313/3/6 322/3/6
f 311/3/6 312/3/6 322/3/6
f 310/3/6 311/3/6 322/3/6
f 309/3/6 310/3/6 322/3/6
f 308/3/6 309/3/6 322/3/6
f 302/3/6 306/3/6 322/3/6
f 322/3/6 321/3/6 323/3/6
f 323/3/6 321/3/6 324/3/6
f 324/3/6 321/3/6 325/3/6
f 325/3/6 321/3/6 326/3/6
f 326/3/6 321/3/6 327/3/6
f 327/3/6 321/3/6 328/3/6
f 328/3/6 321/3/6 329/3/6
f 329/3/6 321/3/6 330/3/6
f 330/3/6 321/3/6 331/3/6
f 323/3/6 324/3/6 332/3/6
f 324/4/6 325/4/6 333/4/6
f 332/3/6 324/3/6 333/3/6
f 325/3/6 326/3/6 334/3/6
f 333/4/6 325/4/6 334/4/6
f 326/4/6 327/4/6 335/4/6
f 334/3/6 326/3/6 335/3/6
f 327/3/6 328/3/6 336/3/6
f 335/4/6 327/4/6 336/4/6
f 328/4/6 329/4/6 337/4/6
f 336/3/6 328/3/6 337/3/6
f 329/3/6 330/3/6 338/3/6
f 337/4/6 329/4/6 338/4/6
f 330/4/6 331/4/6 339/4/6
f 338/3/6 330/3/6 339/3/6
f 339/4/6 331/4/6 340/4/6
f 332/3/6 333/3/6 341/3/6
f 333/3/6 334/3/6 341/3/6
f 339/3/6 340/3/6 341/3/6
f 338/3/6 339/3/6 341/3/6
f 337/3/6 338/3/6 341/3/6
f 336/3/6 337/3/6 341/3/6
f 335/3/6 336/3/6 341/3/6
f 334/3/6 335/3/6 341/3/6
f 341/3/6 340/3/6 342/3/6
f 342/3/6 340/3/6 343/3/6
f 343/3/6 340/3/6 344/3/6
f 344/3/6 340/3/6 345/3/6
f 345/3/6 340/3/6 346/3/6
f 346/3/6 340/3/6 347/3/6
f 347/3/6 340/3/6 348/3/6
f 348/3/6 340/3/6 349/3/6
f 349/3/6 340/3/6 350/3/6
f 350/3/6 340/3/6 351/3/6
f 351/3/6 340/3/6 352/3/6
f 352/3/6 340/3/6 353/3/6
f 353/3/6 340/3/6 354/3/6
f 354/3/6 340/3/6 355/3/6
f 355/3/6 340/3/6 356/3/6
f 356/3/6 340/3/6 357/3/6
f 357/3/6 340/3/6 358/3/6
f 358/3/6 340/3/6 359/3/6
f 359/3/6 340/3/6 360/3/6
f 360/3/6 340/3/6 361/3/6
f 361/3/6 340/3/6 362/3/6
f 362/3/6 340/3/6 363/3/6
f 364/2/6 365/2/6 370/2/6
f 365/1/6 366/1/6 370/1/6
f 370/1/6 366/1/6 371/1/6
f 367/1/6 368/1/6 372/1/6
f 368/2/6 369/2/6 373/2/6
f 372/1/6 368/1/6 373/1/6
f 370/2/6 371/2/6 374/2/6
f 364/2/6 370/2/6 374/2/6
f 374/2/6 371/2/6 375/2/6
f 372/2/6 373/2/6 376/2/6
f 373/2/6 369/2/6 377/2/6
f 376/2/6 373/2/6 377/2/6
f 374/1/6 375/1/6 378/1/6
f 364/2/6 374/2/6 378/2/6
f 378/1/6 375/1/6 379/1/6
f 376/1/6 377/1/6 380/1/6
f 377/2/6 369/2/6 381/2/6
f 380/1/6 377/1/6 381/1/6
f 378/2/6 379/2/6 382/2/6
f 364/2/6 378/2/6 382/2/6
f 382/2/6 379/2/6 383/2/6
f 380/2/6 381/2/6 384/2/6
f 381/2/6 369/2/6 385/2/6
f 384/2/6 381/2/6 385/2/6
f 382/1/6 383/1/6 386/1/6
f 364/2/6 382/2/6 386/2/6
f 386/1/6 383/1/6 387/1/6
f 384/1/6 385/1/6 388/1/6
f 385/2/6 369/2/6 389/2/6
f 388/1/6 385/1/6 389/1/6
f 386/2/6 387/2/6 390/2/6
f 364/2/6 386/2/6 390/2/6
f 390/2/6 387/2/6 391/2/6
f 388/2/6 389/2/6 392/2/6
f 389/2/6 369/2/6 393/2/6
f 392/2/6 389/2/6 393/2/6
f 390/1/6 391/1/6 394/1/6
f 364/2/6 390/2/6 394/2/6
f 394/1/6 391/1/6 395/1/6
f 392/1/6 393/1/6 396/1/6
f 393/2/6 369/2/6 397/2/6
f 396/1/6 393/1/6 397/1/6
f 394/2/6 395/2/6 398/2/6
f 364/2/6 394/2/6 398/2/6
f 398/2/6 395/2/6 399/2/6
f 396/2/6 397/2/6 400/2/6
f 397/2/6 369/2/6 401/2/6
f 400/2/6 397/2/6 401/2/6
f 398/1/6 399/1/6 402/1/6
f 364/2/6 398/2/6 402/2/6
f 402/1/6 399/1/6 403/1/6
f 400/1/6 401/1/6 404/1/6
f 401/2/6 369/2/6 405/2/6
f 404/1/6 401/1/6 405/1/6
f 402/2/6 403/2/6 406/2/6
f 364/2/6 402/2/6 406/2/6
f 406/2/6 403/2/6 407/2/6
f 404/2/6 405/2/6 408/2/6
f 405/2/6 369/2/6 409/2/6
f 408/2/6 405/2/6 409/2/6
f 406/1/6 407/1/6 410/1/6
f 364/2/6 406/2/6 410/2/6
f 410/1/6 407/1/6 411/1/6
f 408/1/6 409/1/6 412/1/6
f 409/2/6 369/2/6 413/2/6
f 412/1/6 409/1/6 413/1/6
f 410/2/6 411/2/6 414/2/6
f 364/2/6 410/2/6 414/2/6
f 414/2/6 411/2/6 415/2/6
f 412/2/6 413/2/6 416/2/6
f 413/2/6 369/2/6 417/2/6
f 416/2/6 413/2/6 417/2/6
f 417/2/6 369/2/6 418/2/6
f 416/1/6 417/1/6 420/1/6
f 418/2/6 419/2/6 420/2/6
f 417/2/6 418/2/6 420/2/6
f 420/2/6 419/2/6 421/2/6
f 421/2/6 419/2/6 422/2/6
f 422/2/6 419/2/6 423/2/6
f 423/2/6 419/2/6 424/2/6
f 424/2/6 419/2/6 425/2/6
f 425/2/6 419/2/6 426/2/6
f 426/2/6 419/2/6 427/2/6
f 427/2/6 419/2/6 428/2/6
f 428/2/6 419/2/6 429/2/6
f 429/2/6 419/2/6 430/2/6
f 430/2/6 419/2/6 431/2/6
f 431/2/6 419/2/6 432/2/6
f 432/2/6 419/2/6 433/2/6
f 416/1/6 420/1/6 434/1/6
f 420/1/6 421/1/6 434/1/6
f 421/2/6 422/2/6 435/2/6
f 434/1/6 421/1/6 435/1/6
f 422/1/6 423/1/6 436/1/6
f 435/2/6 422/2/6 436/2/6
f 423/2/6 424/2/6 437/2/6
f 436/1/6 423/1/6 437/1/6
f 424/1/6 425/1/6 438/1/6
f 437/2/6 424/2/6 438/2/6
f 425/2/6 426/2/6 439/2/6
f 438/1/6 425/1/6 439/1/6
f 426/1/6 427/1/6 440/1/6
f 439/2/6 426/2/6 440/2/6
f 427/2/6 428/2/6 441/2/6
f 440/1/6 427/1/6 441/1/6
f 428/1/6 429/1/6 442/1/6
f 441/2/6 428/2/6 442/2/6
f 429/2/6 430/2/6 443/2/6
f 442/1/6 429/1/6 443/1/6
f 430/1/6 431/1/6 444/1/6
f 443/2/6 430/2/6 444/2/6
f 431/2/6 432/2/6 445/2/6
f 444/1/6 431/1/6 445/1/6
f 432/1/6 433/1/6 446/1/6
f 445/2/6 432/2/6 446/2/6
f 446/1/6 433/1/6 447/1/6
f 414/1/6 415/1/6 448/1/6
f 364/2/6 414/2/6 448/2/6
f 448/1/6 415/1/6 449/1/6
f 364/2/6 448/2/6 450/2/6
f 448/2/6 449/2/6 450/2/6
f 450/2/6 449/2/6 451/2/6
f 364/2/6 450/2/6 452/2/6
f 450/1/6 451/1/6 452/1/6
f 452/1/6 451/1/6 453/1/6
f 364/2/6 452/2/6 454/2/6
f 452/2/6 453/2/6 454/2/6
f 454/2/6 453/2/6 455/2/6
f 364/2/6 454/2/6 456/2/6
f 454/1/6 455/1/6 456/1/6
f 456/1/6 455/1/6 457/1/6
f 364/2/6 456/2/6 458/2/6
f 456/2/6 457/2/6 458/2/6
f 458/2/6 457/2/6 459/2/6
f 458/1/6 459/1/6 460/1/6
f 458/1/6 460/1/6 480/1/6
f 364/2/6 458/2/6 480/2/6
f 460/1/6 461/1/6 480/1/6
f 461/2/6 462/2/6 481/2/6
f 480/1/6 461/1/6 481/1/6
f 462/1/6 463/1/6 482/1/6
f 481/2/6 462/2/6 482/2/6
f 463/2/6 464/2/6 483/2/6
f 482/1/6 463/1/6 483/1/6
f 464/1/6 465/1/6 484/1/6
f 483/2/6 464/2/6 484/2/6
f 465/2/6 466/2/6 485/2/6
f 484/1/6 465/1/6 485/1/6
f 466/1/6 467/1/6 486/1/6
f 485/2/6 466/2/6 486/2/6
f 467/2/6 468/2/6 487/2/6
f 486/1/6 467/1/6 487/1/6
f 468/1/6 469/1/6 488/1/6
f 487/2/6 468/2/6 488/2/6
f 469/2/6 470/2/6 489/2/6
f 488/1/6 469/1/6 489/1/6
f 470/1/6 471/1/6 490/1/6
f 489/2/6 470/2/6 490/2/6
f 471/2/6 472/2/6 491/2/6
f 490/1/6 471/1/6 491/1/6
f 472/1/6 473/1/6 492/1/6
f 491/2/6 472/2/6 492/2/6
f 473/2/6 474/2/6 493/2/6
f 492/1/6 473/1/6 493/1/6
f 474/1/6 475/1/6 494/1/6
f 493/2/6 474/2/6 494/2/6
f 475/2/6 476/2/6 495/2/6
f 494/1/6 475/1/6 495/1/6
f 476/1/6 477/1/6 496/1/6
f 495/2/6 476/2/6 496/2/6
f 477/2/6 478/2/6 497/2/6
f 496/1/6 477/1/6 497/1/6
f 478/1/6 479/1/6 498/1/6
f 497/2/6 478/2/6 498/2/6
f 498/1/6 479/1/6 499/1/6
f 496/2/6 497/2/6 500/2/6
f 495/2/6 496/2/6 500/2/6
f 498/2/6 499/2/6 500/2/6
f 497/2/6 498/2/6 500/2/6
f 493/2/6 494/2/6 500/2/6
f 492/2/6 493/2/6 500/2/6
f 491/2/6 492/2/6 500/2/6
f 490/2/6 491/2/6 500/2/6
f 489/2/6 490/2/6 500/2/6
f 488/2/6 489/2/6 500/2/6
f 487/2/6 488/2/6 500/2/6
f 486/2/6 487/2/6 500/2/6
f 485/2/6 486/2/6 500/2/6
f 484/2/6 485/2/6 500/2/6
f 483/2/6 484/2/6 500/2/6
f 482/2/6 483/2/6 500/2/6
f 481/2/6 482/2/6 500/2/6
f 480/2/6 481/2/6 500/2/6
f 364/2/6 480/2/6 500/2/6
f 494/2/6 495/2/6 500/2/6
f 500/2/6 499/2/6 501/2/6
