# MagicaVoxel @ Ephtracy

# material
mtllib pond1.mtl
usemtl palette

# normals
vn -1 0 0
vn 1 0 0
vn 0 0 1
vn 0 0 -1
vn 0 -1 0
vn 0 1 0

# texcoords
vt 0.00195313 0.5
vt 0.439453 0.5

# verts
v -10 0 5
v -10 0 3
v -10 1 5
v -10 1 3
v -9 0 6
v -9 0 5
v -9 0 3
v -9 0 -0
v -9 1 6
v -9 1 5
v -9 1 3
v -9 1 -0
v -8 0 -0
v -8 0 -2
v -8 1 -0
v -8 1 -2
v -7 0 7
v -7 0 6
v -7 0 -2
v -7 0 -6
v -7 1 7
v -7 1 6
v -7 1 -2
v -7 1 -6
v -6 0 8
v -6 0 7
v -6 0 -6
v -6 0 -7
v -6 1 8
v -6 1 7
v -6 1 -6
v -6 1 -7
v -5 0 9
v -5 0 8
v -5 0 -7
v -5 0 -9
v -5 1 9
v -5 1 8
v -5 1 -7
v -5 1 -9
v -4 0 -9
v -4 0 -10
v -4 1 -9
v -4 1 -10
v -3 0 10
v -3 0 9
v -3 1 10
v -3 1 9
v -2 0 11
v -2 0 10
v -2 1 11
v -2 1 10
v 2 0 -9
v 2 0 -10
v 2 1 -9
v 2 1 -10
v 3 0 11
v 3 0 10
v 3 1 11
v 3 1 10
v 4 0 10
v 4 0 9
v 4 0 -8
v 4 0 -9
v 4 1 10
v 4 1 9
v 4 1 -8
v 4 1 -9
v 5 0 9
v 5 0 8
v 5 0 -7
v 5 0 -8
v 5 1 9
v 5 1 8
v 5 1 -7
v 5 1 -8
v 6 0 8
v 6 0 6
v 6 0 -6
v 6 0 -7
v 6 1 8
v 6 1 6
v 6 1 -6
v 6 1 -7
v 7 0 6
v 7 0 5
v 7 0 -5
v 7 0 -6
v 7 1 6
v 7 1 5
v 7 1 -5
v 7 1 -6
v 8 0 5
v 8 0 4
v 8 0 -4
v 8 0 -5
v 8 1 5
v 8 1 4
v 8 1 -4
v 8 1 -5
v 9 0 4
v 9 0 1
v 9 0 -1
v 9 0 -4
v 9 1 4
v 9 1 1
v 9 1 -1
v 9 1 -4
v 10 0 1
v 10 0 -1
v 10 1 1
v 10 1 -1
v -2 0 11
v -2 1 11
v 3 0 11
v 3 1 11
v -3 0 10
v -3 1 10
v -2 0 10
v -2 1 10
v 3 0 10
v 3 1 10
v 4 0 10
v 4 1 10
v -5 0 9
v -5 1 9
v -3 0 9
v -3 1 9
v 4 0 9
v 4 1 9
v 5 0 9
v 5 1 9
v -6 0 8
v -6 1 8
v -5 0 8
v -5 1 8
v 5 0 8
v 5 1 8
v 6 0 8
v 6 1 8
v -7 0 7
v -7 1 7
v -6 0 7
v -6 1 7
v -9 0 6
v -9 1 6
v -7 0 6
v -7 1 6
v 6 0 6
v 6 1 6
v 7 0 6
v 7 1 6
v -10 0 5
v -10 1 5
v -9 0 5
v -9 1 5
v 7 0 5
v 7 1 5
v 8 0 5
v 8 1 5
v 8 0 4
v 8 1 4
v 9 0 4
v 9 1 4
v 9 0 1
v 9 1 1
v 10 0 1
v 10 1 1
v -10 0 3
v -10 1 3
v -9 0 3
v -9 1 3
v -9 0 -0
v -9 1 -0
v -8 0 -0
v -8 1 -0
v 9 0 -1
v 9 1 -1
v 10 0 -1
v 10 1 -1
v -8 0 -2
v -8 1 -2
v -7 0 -2
v -7 1 -2
v 8 0 -4
v 8 1 -4
v 9 0 -4
v 9 1 -4
v 7 0 -5
v 7 1 -5
v 8 0 -5
v 8 1 -5
v -7 0 -6
v -7 1 -6
v -6 0 -6
v -6 1 -6
v 6 0 -6
v 6 1 -6
v 7 0 -6
v 7 1 -6
v -6 0 -7
v -6 1 -7
v -5 0 -7
v -5 1 -7
v 5 0 -7
v 5 1 -7
v 6 0 -7
v 6 1 -7
v 4 0 -8
v 4 1 -8
v 5 0 -8
v 5 1 -8
v -5 0 -9
v -5 1 -9
v -4 0 -9
v -4 1 -9
v 2 0 -9
v 2 1 -9
v 4 0 -9
v 4 1 -9
v -4 0 -10
v -4 1 -10
v 2 0 -10
v 2 1 -10
v -2 0 11
v 3 0 11
v -3 0 10
v -2 0 10
v 3 0 10
v 4 0 10
v -5 0 9
v -3 0 9
v -2 0 9
v 3 0 9
v 4 0 9
v 5 0 9
v -6 0 8
v -5 0 8
v -3 0 8
v 4 0 8
v 5 0 8
v 6 0 8
v -7 0 7
v -6 0 7
v -5 0 7
v -9 0 6
v -7 0 6
v -6 0 6
v 5 0 6
v 6 0 6
v 7 0 6
v -10 0 5
v -9 0 5
v -7 0 5
v 6 0 5
v 7 0 5
v 8 0 5
v 7 0 4
v 8 0 4
v 9 0 4
v -10 0 3
v -9 0 3
v -8 0 3
v 8 0 1
v 9 0 1
v 10 0 1
v -9 0 -0
v -8 0 -0
v -7 0 -0
v 8 0 -1
v 9 0 -1
v 10 0 -1
v -8 0 -2
v -7 0 -2
v -6 0 -2
v 7 0 -4
v 8 0 -4
v 9 0 -4
v 6 0 -5
v 7 0 -5
v 8 0 -5
v -7 0 -6
v -6 0 -6
v -5 0 -6
v 5 0 -6
v 6 0 -6
v 7 0 -6
v -6 0 -7
v -5 0 -7
v -4 0 -7
v 4 0 -7
v 5 0 -7
v 6 0 -7
v 2 0 -8
v 4 0 -8
v 5 0 -8
v -5 0 -9
v -4 0 -9
v 2 0 -9
v 4 0 -9
v -4 0 -10
v 2 0 -10
v -2 1 11
v 3 1 11
v -3 1 10
v -2 1 10
v 3 1 10
v 4 1 10
v -5 1 9
v -3 1 9
v -2 1 9
v 3 1 9
v 4 1 9
v 5 1 9
v -6 1 8
v -5 1 8
v -3 1 8
v 4 1 8
v 5 1 8
v 6 1 8
v -7 1 7
v -6 1 7
v -5 1 7
v -9 1 6
v -7 1 6
v -6 1 6
v 5 1 6
v 6 1 6
v 7 1 6
v -10 1 5
v -9 1 5
v -7 1 5
v 6 1 5
v 7 1 5
v 8 1 5
v 7 1 4
v 8 1 4
v 9 1 4
v -10 1 3
v -9 1 3
v -8 1 3
v 8 1 1
v 9 1 1
v 10 1 1
v -9 1 -0
v -8 1 -0
v -7 1 -0
v 8 1 -1
v 9 1 -1
v 10 1 -1
v -8 1 -2
v -7 1 -2
v -6 1 -2
v 7 1 -4
v 8 1 -4
v 9 1 -4
v 6 1 -5
v 7 1 -5
v 8 1 -5
v -7 1 -6
v -6 1 -6
v -5 1 -6
v 5 1 -6
v 6 1 -6
v 7 1 -6
v -6 1 -7
v -5 1 -7
v -4 1 -7
v 4 1 -7
v 5 1 -7
v 6 1 -7
v 2 1 -8
v 4 1 -8
v 5 1 -8
v -5 1 -9
v -4 1 -9
v 2 1 -9
v 4 1 -9
v -4 1 -10
v 2 1 -10

# faces
f 3/1/1 2/1/1 1/1/1
f 4/1/1 2/1/1 3/1/1
f 9/1/1 6/1/1 5/1/1
f 10/1/1 6/1/1 9/1/1
f 11/1/1 8/1/1 7/1/1
f 12/1/1 8/1/1 11/1/1
f 15/1/1 14/1/1 13/1/1
f 16/1/1 14/1/1 15/1/1
f 21/1/1 18/1/1 17/1/1
f 22/1/1 18/1/1 21/1/1
f 23/1/1 20/1/1 19/1/1
f 24/1/1 20/1/1 23/1/1
f 29/1/1 26/1/1 25/1/1
f 30/1/1 26/1/1 29/1/1
f 31/1/1 28/1/1 27/1/1
f 32/1/1 28/1/1 31/1/1
f 37/1/1 34/1/1 33/1/1
f 38/1/1 34/1/1 37/1/1
f 39/1/1 36/1/1 35/1/1
f 40/1/1 36/1/1 39/1/1
f 43/1/1 42/1/1 41/1/1
f 44/1/1 42/1/1 43/1/1
f 47/1/1 46/1/1 45/1/1
f 48/1/1 46/1/1 47/1/1
f 51/1/1 50/1/1 49/1/1
f 52/1/1 50/1/1 51/1/1
f 53/1/2 54/1/2 55/1/2
f 55/1/2 54/1/2 56/1/2
f 57/1/2 58/1/2 59/1/2
f 59/1/2 58/1/2 60/1/2
f 61/1/2 62/1/2 65/1/2
f 65/1/2 62/1/2 66/1/2
f 63/1/2 64/1/2 67/1/2
f 67/1/2 64/1/2 68/1/2
f 69/1/2 70/1/2 73/1/2
f 73/1/2 70/1/2 74/1/2
f 71/1/2 72/1/2 75/1/2
f 75/1/2 72/1/2 76/1/2
f 77/1/2 78/1/2 81/1/2
f 81/1/2 78/1/2 82/1/2
f 79/1/2 80/1/2 83/1/2
f 83/1/2 80/1/2 84/1/2
f 85/1/2 86/1/2 89/1/2
f 89/1/2 86/1/2 90/1/2
f 87/1/2 88/1/2 91/1/2
f 91/1/2 88/1/2 92/1/2
f 93/1/2 94/1/2 97/1/2
f 97/1/2 94/1/2 98/1/2
f 95/1/2 96/1/2 99/1/2
f 99/1/2 96/1/2 100/1/2
f 101/1/2 102/1/2 105/1/2
f 105/1/2 102/1/2 106/1/2
f 103/1/2 104/1/2 107/1/2
f 107/1/2 104/1/2 108/1/2
f 109/1/2 110/1/2 111/1/2
f 111/1/2 110/1/2 112/1/2
f 115/1/3 114/1/3 113/1/3
f 116/1/3 114/1/3 115/1/3
f 119/1/3 118/1/3 117/1/3
f 120/1/3 118/1/3 119/1/3
f 123/1/3 122/1/3 121/1/3
f 124/1/3 122/1/3 123/1/3
f 127/1/3 126/1/3 125/1/3
f 128/1/3 126/1/3 127/1/3
f 131/1/3 130/1/3 129/1/3
f 132/1/3 130/1/3 131/1/3
f 135/1/3 134/1/3 133/1/3
f 136/1/3 134/1/3 135/1/3
f 139/1/3 138/1/3 137/1/3
f 140/1/3 138/1/3 139/1/3
f 143/1/3 142/1/3 141/1/3
f 144/1/3 142/1/3 143/1/3
f 147/1/3 146/1/3 145/1/3
f 148/1/3 146/1/3 147/1/3
f 151/1/3 150/1/3 149/1/3
f 152/1/3 150/1/3 151/1/3
f 155/1/3 154/1/3 153/1/3
f 156/1/3 154/1/3 155/1/3
f 159/1/3 158/1/3 157/1/3
f 160/1/3 158/1/3 159/1/3
f 163/1/3 162/1/3 161/1/3
f 164/1/3 162/1/3 163/1/3
f 167/1/3 166/1/3 165/1/3
f 168/1/3 166/1/3 167/1/3
f 169/1/4 170/1/4 171/1/4
f 171/1/4 170/1/4 172/1/4
f 173/1/4 174/1/4 175/1/4
f 175/1/4 174/1/4 176/1/4
f 177/1/4 178/1/4 179/1/4
f 179/1/4 178/1/4 180/1/4
f 181/1/4 182/1/4 183/1/4
f 183/1/4 182/1/4 184/1/4
f 185/1/4 186/1/4 187/1/4
f 187/1/4 186/1/4 188/1/4
f 189/1/4 190/1/4 191/1/4
f 191/1/4 190/1/4 192/1/4
f 193/1/4 194/1/4 195/1/4
f 195/1/4 194/1/4 196/1/4
f 197/1/4 198/1/4 199/1/4
f 199/1/4 198/1/4 200/1/4
f 201/1/4 202/1/4 203/1/4
f 203/1/4 202/1/4 204/1/4
f 205/1/4 206/1/4 207/1/4
f 207/1/4 206/1/4 208/1/4
f 209/1/4 210/1/4 211/1/4
f 211/1/4 210/1/4 212/1/4
f 213/1/4 214/1/4 215/1/4
f 215/1/4 214/1/4 216/1/4
f 217/1/4 218/1/4 219/1/4
f 219/1/4 218/1/4 220/1/4
f 221/1/4 222/1/4 223/1/4
f 223/1/4 222/1/4 224/1/4
f 228/1/5 226/1/5 225/1/5
f 229/1/5 226/1/5 228/1/5
f 232/1/5 228/1/5 227/1/5
f 233/2/5 229/2/5 228/2/5
f 233/1/5 228/1/5 232/1/5
f 234/1/5 230/1/5 229/1/5
f 234/2/5 229/2/5 233/2/5
f 235/1/5 230/1/5 234/1/5
f 238/1/5 232/1/5 231/1/5
f 239/2/5 233/2/5 232/2/5
f 239/2/5 234/2/5 233/2/5
f 239/1/5 232/1/5 238/1/5
f 239/2/5 235/2/5 234/2/5
f 240/1/5 236/1/5 235/1/5
f 240/2/5 235/2/5 239/2/5
f 241/1/5 236/1/5 240/1/5
f 244/1/5 238/1/5 237/1/5
f 245/2/5 239/2/5 238/2/5
f 245/2/5 240/2/5 239/2/5
f 245/1/5 238/1/5 244/1/5
f 245/2/5 241/2/5 240/2/5
f 247/1/5 244/1/5 243/1/5
f 248/2/5 245/2/5 244/2/5
f 248/1/5 244/1/5 247/1/5
f 249/1/5 242/1/5 241/1/5
f 249/2/5 245/2/5 248/2/5
f 249/2/5 241/2/5 245/2/5
f 250/1/5 242/1/5 249/1/5
f 253/1/5 247/1/5 246/1/5
f 254/2/5 248/2/5 247/2/5
f 254/2/5 249/2/5 248/2/5
f 254/1/5 247/1/5 253/1/5
f 254/2/5 250/2/5 249/2/5
f 255/1/5 251/1/5 250/1/5
f 255/2/5 250/2/5 254/2/5
f 256/1/5 251/1/5 255/1/5
f 258/2/5 254/2/5 253/2/5
f 258/1/5 257/1/5 256/1/5
f 258/2/5 256/2/5 255/2/5
f 258/2/5 255/2/5 254/2/5
f 259/1/5 257/1/5 258/1/5
f 261/1/5 253/1/5 252/1/5
f 262/2/5 258/2/5 253/2/5
f 262/1/5 253/1/5 261/1/5
f 262/2/5 259/2/5 258/2/5
f 263/2/5 259/2/5 262/2/5
f 264/1/5 260/1/5 259/1/5
f 264/2/5 259/2/5 263/2/5
f 265/1/5 260/1/5 264/1/5
f 267/1/5 263/1/5 262/1/5
f 268/2/5 264/2/5 263/2/5
f 268/1/5 263/1/5 267/1/5
f 268/2/5 265/2/5 264/2/5
f 269/2/5 265/2/5 268/2/5
f 270/2/5 265/2/5 269/2/5
f 271/1/5 266/1/5 265/1/5
f 271/2/5 265/2/5 270/2/5
f 272/1/5 266/1/5 271/1/5
f 273/1/5 269/1/5 268/1/5
f 274/2/5 270/2/5 269/2/5
f 274/1/5 269/1/5 273/1/5
f 275/2/5 270/2/5 274/2/5
f 276/2/5 270/2/5 275/2/5
f 277/1/5 271/1/5 270/1/5
f 277/2/5 270/2/5 276/2/5
f 278/1/5 271/1/5 277/1/5
f 279/2/5 276/2/5 275/2/5
f 280/1/5 277/1/5 276/1/5
f 280/2/5 276/2/5 279/2/5
f 281/1/5 277/1/5 280/1/5
f 282/1/5 275/1/5 274/1/5
f 283/2/5 279/2/5 275/2/5
f 283/1/5 275/1/5 282/1/5
f 284/2/5 279/2/5 283/2/5
f 285/2/5 279/2/5 284/2/5
f 286/1/5 280/1/5 279/1/5
f 286/2/5 279/2/5 285/2/5
f 287/1/5 280/1/5 286/1/5
f 288/1/5 284/1/5 283/1/5
f 289/2/5 285/2/5 284/2/5
f 289/1/5 284/1/5 288/1/5
f 290/2/5 285/2/5 289/2/5
f 291/2/5 285/2/5 290/2/5
f 292/1/5 286/1/5 285/1/5
f 292/2/5 285/2/5 291/2/5
f 293/1/5 286/1/5 292/1/5
f 294/2/5 291/2/5 290/2/5
f 295/1/5 292/1/5 291/1/5
f 295/2/5 291/2/5 294/2/5
f 296/1/5 292/1/5 295/1/5
f 297/1/5 290/1/5 289/1/5
f 298/2/5 294/2/5 290/2/5
f 298/1/5 290/1/5 297/1/5
f 299/1/5 295/1/5 294/1/5
f 299/2/5 294/2/5 298/2/5
f 300/1/5 295/1/5 299/1/5
f 301/1/5 299/1/5 298/1/5
f 302/1/5 299/1/5 301/1/5
f 303/1/6 304/1/6 306/1/6
f 306/1/6 304/1/6 307/1/6
f 305/1/6 306/1/6 310/1/6
f 306/2/6 307/2/6 311/2/6
f 310/1/6 306/1/6 311/1/6
f 307/1/6 308/1/6 312/1/6
f 311/2/6 307/2/6 312/2/6
f 312/1/6 308/1/6 313/1/6
f 309/1/6 310/1/6 316/1/6
f 310/2/6 311/2/6 317/2/6
f 311/2/6 312/2/6 317/2/6
f 316/1/6 310/1/6 317/1/6
f 312/2/6 313/2/6 317/2/6
f 313/1/6 314/1/6 318/1/6
f 317/2/6 313/2/6 318/2/6
f 318/1/6 314/1/6 319/1/6
f 315/1/6 316/1/6 322/1/6
f 316/2/6 317/2/6 323/2/6
f 317/2/6 318/2/6 323/2/6
f 322/1/6 316/1/6 323/1/6
f 318/2/6 319/2/6 323/2/6
f 321/1/6 322/1/6 325/1/6
f 322/2/6 323/2/6 326/2/6
f 325/1/6 322/1/6 326/1/6
f 319/1/6 320/1/6 327/1/6
f 326/2/6 323/2/6 327/2/6
f 323/2/6 319/2/6 327/2/6
f 327/1/6 320/1/6 328/1/6
f 324/1/6 325/1/6 331/1/6
f 325/2/6 326/2/6 332/2/6
f 326/2/6 327/2/6 332/2/6
f 331/1/6 325/1/6 332/1/6
f 327/2/6 328/2/6 332/2/6
f 328/1/6 329/1/6 333/1/6
f 332/2/6 328/2/6 333/2/6
f 333/1/6 329/1/6 334/1/6
f 331/2/6 332/2/6 336/2/6
f 334/1/6 335/1/6 336/1/6
f 333/2/6 334/2/6 336/2/6
f 332/2/6 333/2/6 336/2/6
f 336/1/6 335/1/6 337/1/6
f 330/1/6 331/1/6 339/1/6
f 331/2/6 336/2/6 340/2/6
f 339/1/6 331/1/6 340/1/6
f 336/2/6 337/2/6 340/2/6
f 340/2/6 337/2/6 341/2/6
f 337/1/6 338/1/6 342/1/6
f 341/2/6 337/2/6 342/2/6
f 342/1/6 338/1/6 343/1/6
f 340/1/6 341/1/6 345/1/6
f 341/2/6 342/2/6 346/2/6
f 345/1/6 341/1/6 346/1/6
f 342/2/6 343/2/6 346/2/6
f 346/2/6 343/2/6 347/2/6
f 347/2/6 343/2/6 348/2/6
f 343/1/6 344/1/6 349/1/6
f 348/2/6 343/2/6 349/2/6
f 349/1/6 344/1/6 350/1/6
f 346/1/6 347/1/6 351/1/6
f 347/2/6 348/2/6 352/2/6
f 351/1/6 347/1/6 352/1/6
f 352/2/6 348/2/6 353/2/6
f 353/2/6 348/2/6 354/2/6
f 348/1/6 349/1/6 355/1/6
f 354/2/6 348/2/6 355/2/6
f 355/1/6 349/1/6 356/1/6
f 353/2/6 354/2/6 357/2/6
f 354/1/6 355/1/6 358/1/6
f 357/2/6 354/2/6 358/2/6
f 358/1/6 355/1/6 359/1/6
f 352/1/6 353/1/6 360/1/6
f 353/2/6 357/2/6 361/2/6
f 360/1/6 353/1/6 361/1/6
f 361/2/6 357/2/6 362/2/6
f 362/2/6 357/2/6 363/2/6
f 357/1/6 358/1/6 364/1/6
f 363/2/6 357/2/6 364/2/6
f 364/1/6 358/1/6 365/1/6
f 361/1/6 362/1/6 366/1/6
f 362/2/6 363/2/6 367/2/6
f 366/1/6 362/1/6 367/1/6
f 367/2/6 363/2/6 368/2/6
f 368/2/6 363/2/6 369/2/6
f 363/1/6 364/1/6 370/1/6
f 369/2/6 363/2/6 370/2/6
f 370/1/6 364/1/6 371/1/6
f 368/2/6 369/2/6 372/2/6
f 369/1/6 370/1/6 373/1/6
f 372/2/6 369/2/6 373/2/6
f 373/1/6 370/1/6 374/1/6
f 367/1/6 368/1/6 375/1/6
f 368/2/6 372/2/6 376/2/6
f 375/1/6 368/1/6 376/1/6
f 372/1/6 373/1/6 377/1/6
f 376/2/6 372/2/6 377/2/6
f 377/1/6 373/1/6 378/1/6
f 376/1/6 377/1/6 379/1/6
f 379/1/6 377/1/6 380/1/6
