# MagicaVoxel @ Ephtracy

# material
mtllib tree_medium.mtl
usemtl palette

# normals
vn -1 0 0
vn 1 0 0
vn 0 0 1
vn 0 0 -1
vn 0 -1 0
vn 0 1 0

# texcoords
vt 0.431641 0.5
vt 0.818359 0.5

# verts
v -7 7 -2
v -7 7 -4
v -7 8 -0
v -7 8 -2
v -7 8 -4
v -7 8 -6
v -7 12 -0
v -7 12 -6
v -6 6 5
v -6 6 -2
v -6 7 -2
v -6 8 -0
v -6 8 -2
v -6 10 5
v -6 10 -0
v -4 10 4
v -4 10 -0
v -4 12 -0
v -4 12 -5
v -4 17 4
v -4 17 -5
v -3 5 3
v -3 5 -3
v -3 6 7
v -3 6 5
v -3 6 3
v -3 6 -2
v -3 7 -2
v -3 7 -3
v -3 9 7
v -3 9 5
v -1 0 1
v -1 0 -1
v -1 5 1
v -1 5 -1
v 0 9 6
v 0 9 5
v 0 10 5
v 0 10 4
v 0 11 6
v 0 11 4
v 1 7 -4
v 1 7 -6
v 1 8 -4
v 1 8 -5
v 1 12 -5
v 1 12 -6
v -2 8 -5
v -2 8 -6
v -2 12 -5
v -2 12 -6
v 1 0 1
v 1 0 -1
v 1 5 1
v 1 5 -1
v 2 6 7
v 2 6 3
v 2 7 6
v 2 7 3
v 2 9 7
v 2 9 6
v 3 5 3
v 3 5 -3
v 3 7 3
v 3 7 -3
v 5 11 4
v 5 11 1
v 5 12 1
v 5 12 -5
v 5 17 4
v 5 17 -5
v 7 7 6
v 7 7 1
v 7 11 6
v 7 11 1
v 8 7 1
v 8 7 -6
v 8 12 1
v 8 12 -6
v -3 6 7
v -3 9 7
v 2 6 7
v 2 9 7
v 0 9 6
v 0 11 6
v 2 7 6
v 2 9 6
v 7 7 6
v 7 11 6
v -6 6 5
v -6 10 5
v -3 6 5
v -3 9 5
v 0 9 5
v 0 10 5
v -4 10 4
v -4 17 4
v 0 10 4
v 0 11 4
v 5 11 4
v 5 17 4
v -3 5 3
v -3 6 3
v 2 6 3
v 2 7 3
v 3 5 3
v 3 7 3
v -1 0 1
v -1 5 1
v 1 0 1
v 1 5 1
v 5 11 1
v 5 12 1
v 7 7 1
v 7 11 1
v 8 7 1
v 8 12 1
v -7 8 -0
v -7 12 -0
v -6 8 -0
v -6 10 -0
v -4 10 -0
v -4 12 -0
v -7 7 -2
v -7 8 -2
v -6 7 -2
v -6 8 -2
v -1 0 -1
v -1 5 -1
v 1 0 -1
v 1 5 -1
v -6 6 -2
v -6 7 -2
v -3 6 -2
v -3 7 -2
v -3 5 -3
v -3 7 -3
v 3 5 -3
v 3 7 -3
v -7 7 -4
v -7 8 -4
v 1 7 -4
v 1 8 -4
v -4 12 -5
v -4 17 -5
v -2 8 -5
v -2 12 -5
v 1 8 -5
v 1 12 -5
v 5 12 -5
v 5 17 -5
v -7 8 -6
v -7 12 -6
v -2 8 -6
v -2 12 -6
v 1 7 -6
v 1 12 -6
v 8 7 -6
v 8 12 -6
v -1 0 1
v 1 0 1
v -1 0 -1
v 1 0 -1
v -3 5 3
v 3 5 3
v -1 5 1
v 1 5 1
v -1 5 -1
v 1 5 -1
v -3 5 -3
v 3 5 -3
v -3 6 7
v 2 6 7
v -6 6 5
v -3 6 5
v -3 6 3
v 2 6 3
v -6 6 -2
v -3 6 -2
v 2 7 6
v 7 7 6
v 2 7 3
v 3 7 3
v 7 7 1
v 8 7 1
v -7 7 -2
v -6 7 -2
v -3 7 -2
v -3 7 -3
v 3 7 -3
v -7 7 -4
v 1 7 -4
v 1 7 -6
v 8 7 -6
v -7 8 -0
v -6 8 -0
v -7 8 -2
v -6 8 -2
v -7 8 -4
v 1 8 -4
v -2 8 -5
v 1 8 -5
v -7 8 -6
v -2 8 -6
v -3 9 7
v 2 9 7
v 0 9 6
v 2 9 6
v -3 9 5
v 0 9 5
v -6 10 5
v 0 10 5
v -4 10 4
v 0 10 4
v -6 10 -0
v -4 10 -0
v 0 11 6
v 7 11 6
v 0 11 4
v 5 11 4
v 5 11 1
v 7 11 1
v 5 12 1
v 8 12 1
v -7 12 -0
v -4 12 -0
v -4 12 -5
v -2 12 -5
v 1 12 -5
v 5 12 -5
v -7 12 -6
v -2 12 -6
v 1 12 -6
v 8 12 -6
v -4 17 4
v 5 17 4
v -4 17 -5
v 5 17 -5

# faces
f 4/2/1 2/2/1 1/2/1
f 5/2/1 2/2/1 4/2/1
f 7/2/1 4/2/1 3/2/1
f 7/2/1 6/2/1 5/2/1
f 7/2/1 5/2/1 4/2/1
f 8/2/1 6/2/1 7/2/1
f 11/2/1 10/2/1 9/2/1
f 12/2/1 11/2/1 9/2/1
f 13/2/1 11/2/1 12/2/1
f 14/2/1 12/2/1 9/2/1
f 15/2/1 12/2/1 14/2/1
f 18/2/1 17/2/1 16/2/1
f 20/2/1 18/2/1 16/2/1
f 20/2/1 19/2/1 18/2/1
f 21/2/1 19/2/1 20/2/1
f 26/2/1 23/2/1 22/2/1
f 27/2/1 23/2/1 26/2/1
f 28/2/1 23/2/1 27/2/1
f 29/2/1 23/2/1 28/2/1
f 30/2/1 25/2/1 24/2/1
f 31/2/1 25/2/1 30/2/1
f 34/1/1 33/1/1 32/1/1
f 35/1/1 33/1/1 34/1/1
f 38/2/1 37/2/1 36/2/1
f 40/2/1 38/2/1 36/2/1
f 40/2/1 39/2/1 38/2/1
f 41/2/1 39/2/1 40/2/1
f 44/2/1 43/2/1 42/2/1
f 45/2/1 43/2/1 44/2/1
f 46/2/1 43/2/1 45/2/1
f 47/2/1 43/2/1 46/2/1
f 48/2/2 49/2/2 50/2/2
f 50/2/2 49/2/2 51/2/2
f 52/1/2 53/1/2 54/1/2
f 54/1/2 53/1/2 55/1/2
f 56/2/2 57/2/2 58/2/2
f 58/2/2 57/2/2 59/2/2
f 56/2/2 58/2/2 60/2/2
f 60/2/2 58/2/2 61/2/2
f 62/2/2 63/2/2 64/2/2
f 64/2/2 63/2/2 65/2/2
f 66/2/2 67/2/2 68/2/2
f 66/2/2 68/2/2 70/2/2
f 68/2/2 69/2/2 70/2/2
f 70/2/2 69/2/2 71/2/2
f 72/2/2 73/2/2 74/2/2
f 74/2/2 73/2/2 75/2/2
f 76/2/2 77/2/2 78/2/2
f 78/2/2 77/2/2 79/2/2
f 82/2/3 81/2/3 80/2/3
f 83/2/3 81/2/3 82/2/3
f 87/2/3 85/2/3 84/2/3
f 88/2/3 87/2/3 86/2/3
f 89/2/3 85/2/3 87/2/3
f 89/2/3 87/2/3 88/2/3
f 92/2/3 91/2/3 90/2/3
f 93/2/3 91/2/3 92/2/3
f 94/2/3 91/2/3 93/2/3
f 95/2/3 91/2/3 94/2/3
f 98/2/3 97/2/3 96/2/3
f 99/2/3 97/2/3 98/2/3
f 100/2/3 97/2/3 99/2/3
f 101/2/3 97/2/3 100/2/3
f 104/2/3 103/2/3 102/2/3
f 106/2/3 104/2/3 102/2/3
f 106/2/3 105/2/3 104/2/3
f 107/2/3 105/2/3 106/2/3
f 110/1/3 109/1/3 108/1/3
f 111/1/3 109/1/3 110/1/3
f 115/2/3 113/2/3 112/2/3
f 116/2/3 115/2/3 114/2/3
f 117/2/3 113/2/3 115/2/3
f 117/2/3 115/2/3 116/2/3
f 120/2/3 119/2/3 118/2/3
f 121/2/3 119/2/3 120/2/3
f 122/2/3 119/2/3 121/2/3
f 123/2/3 119/2/3 122/2/3
f 126/2/3 125/2/3 124/2/3
f 127/2/3 125/2/3 126/2/3
f 128/1/4 129/1/4 130/1/4
f 130/1/4 129/1/4 131/1/4
f 132/2/4 133/2/4 134/2/4
f 134/2/4 133/2/4 135/2/4
f 136/2/4 137/2/4 138/2/4
f 138/2/4 137/2/4 139/2/4
f 140/2/4 141/2/4 142/2/4
f 142/2/4 141/2/4 143/2/4
f 144/2/4 145/2/4 147/2/4
f 146/2/4 147/2/4 148/2/4
f 147/2/4 145/2/4 149/2/4
f 148/2/4 147/2/4 149/2/4
f 149/2/4 145/2/4 150/2/4
f 150/2/4 145/2/4 151/2/4
f 152/2/4 153/2/4 154/2/4
f 154/2/4 153/2/4 155/2/4
f 156/2/4 157/2/4 158/2/4
f 158/2/4 157/2/4 159/2/4
f 162/1/5 161/1/5 160/1/5
f 163/1/5 161/1/5 162/1/5
f 166/2/5 165/2/5 164/2/5
f 167/2/5 165/2/5 166/2/5
f 168/2/5 166/2/5 164/2/5
f 169/2/5 165/2/5 167/2/5
f 170/2/5 168/2/5 164/2/5
f 170/2/5 169/2/5 168/2/5
f 171/2/5 165/2/5 169/2/5
f 171/2/5 169/2/5 170/2/5
f 175/2/5 173/2/5 172/2/5
f 176/2/5 173/2/5 175/2/5
f 176/2/5 175/2/5 174/2/5
f 177/2/5 173/2/5 176/2/5
f 178/2/5 176/2/5 174/2/5
f 179/2/5 176/2/5 178/2/5
f 182/2/5 181/2/5 180/2/5
f 183/2/5 181/2/5 182/2/5
f 184/2/5 181/2/5 183/2/5
f 189/2/5 187/2/5 186/2/5
f 189/2/5 188/2/5 187/2/5
f 190/2/5 184/2/5 183/2/5
f 190/2/5 185/2/5 184/2/5
f 191/2/5 189/2/5 186/2/5
f 191/2/5 190/2/5 189/2/5
f 192/2/5 190/2/5 191/2/5
f 193/2/5 190/2/5 192/2/5
f 194/2/5 185/2/5 190/2/5
f 194/2/5 190/2/5 193/2/5
f 197/2/5 196/2/5 195/2/5
f 198/2/5 196/2/5 197/2/5
f 201/2/5 200/2/5 199/2/5
f 202/2/5 200/2/5 201/2/5
f 203/2/5 201/2/5 199/2/5
f 204/2/5 201/2/5 203/2/5
f 205/2/6 206/2/6 207/2/6
f 207/2/6 206/2/6 208/2/6
f 205/2/6 207/2/6 209/2/6
f 209/2/6 207/2/6 210/2/6
f 211/2/6 212/2/6 213/2/6
f 213/2/6 212/2/6 214/2/6
f 211/2/6 213/2/6 215/2/6
f 215/2/6 213/2/6 216/2/6
f 217/2/6 218/2/6 219/2/6
f 219/2/6 218/2/6 220/2/6
f 220/2/6 218/2/6 221/2/6
f 221/2/6 218/2/6 222/2/6
f 225/2/6 226/2/6 227/2/6
f 223/2/6 224/2/6 230/2/6
f 227/2/6 228/2/6 231/2/6
f 225/2/6 227/2/6 231/2/6
f 231/2/6 228/2/6 232/2/6
f 229/2/6 230/2/6 233/2/6
f 230/2/6 224/2/6 234/2/6
f 233/2/6 230/2/6 234/2/6
f 235/2/6 236/2/6 237/2/6
f 237/2/6 236/2/6 238/2/6
